<svg width="375" height="380" viewBox="0 0 375 380" fill="none" xmlns="http://www.w3.org/2000/svg">
<path fill-rule="evenodd" clip-rule="evenodd" d="M375 0H0V340V380C0 357.909 17.9086 340 40 340H335C357.091 340 375 322.091 375 300V0Z" fill="url(#paint0_linear)"/>
<mask id="mask0" mask-type="alpha" maskUnits="userSpaceOnUse" x="0" y="0" width="375" height="380">
<path fill-rule="evenodd" clip-rule="evenodd" d="M375 0H0V340V380C0 357.909 17.9086 340 40 340H335C357.091 340 375 322.091 375 300V0Z" fill="url(#paint1_linear)"/>
</mask>
<g mask="url(#mask0)">
<path fill-rule="evenodd" clip-rule="evenodd" d="M315.038 165.683C300.959 149.138 283.81 135.48 264.54 125.464C264.719 123.474 264.818 121.484 264.818 119.613C264.808 107.752 261.534 96.1222 255.354 86.0012C249.175 75.8802 240.329 67.659 229.787 62.2401C220.98 57.7028 204.896 55.1157 187.5 55.1157C169.775 54.7707 152.172 58.1185 135.809 64.9466C121.973 71.0435 109.31 79.5162 98.3919 89.9814C78.0733 109.464 20 201.365 20 274.38C20.0015 301.383 26.5192 327.987 38.9986 351.928C51.4781 375.869 69.5501 396.438 91.6772 411.887C113.804 427.335 139.332 437.205 166.088 440.657C192.845 444.109 220.038 441.04 245.355 431.713C270.673 422.386 293.365 407.075 311.501 387.084C329.637 367.093 342.681 343.013 349.523 316.892C356.365 290.771 356.803 263.383 350.799 237.056C344.795 210.73 332.527 186.244 315.038 165.683Z" fill="#FECB3D"/>
<path fill-rule="evenodd" clip-rule="evenodd" d="M239.688 287.534H241.18C247.621 287.534 252.81 281.683 252.81 274.459C252.81 267.235 247.621 261.385 241.18 261.385H204.22V256.967C204.361 255.164 204.128 253.351 203.535 251.643C202.942 249.935 202.003 248.368 200.776 247.041C199.55 245.713 198.062 244.654 196.407 243.93C194.752 243.205 192.965 242.831 191.158 242.831C189.352 242.831 187.565 243.205 185.91 243.93C184.254 244.654 182.767 245.713 181.54 247.041C180.313 248.368 179.374 249.935 178.782 251.643C178.189 253.351 177.956 255.164 178.096 256.967V261.464H143.105C136.664 261.464 131.475 267.315 131.475 274.539C131.475 281.763 136.664 287.613 143.105 287.613H144.596C137.443 296.576 132.964 307.377 131.673 318.775C130.382 330.173 132.333 341.704 137.301 352.042C142.268 362.379 150.051 371.102 159.753 377.207C169.455 383.312 180.682 386.551 192.142 386.551C203.602 386.551 214.829 383.312 224.531 377.207C234.233 371.102 242.016 362.379 246.984 352.042C251.952 341.704 253.902 330.173 252.612 318.775C251.321 307.377 246.842 296.576 239.688 287.613V287.534ZM192.132 360.25C185.263 360.266 178.544 358.242 172.825 354.433C167.106 350.625 162.645 345.204 160.005 338.856C157.366 332.508 156.667 325.52 157.997 318.774C159.328 312.029 162.628 305.83 167.479 300.963C172.331 296.096 178.516 292.778 185.251 291.431C191.987 290.084 198.971 290.768 205.318 293.395C211.666 296.023 217.092 300.476 220.91 306.192C224.728 311.907 226.766 318.628 226.766 325.504C226.766 334.706 223.119 343.531 216.627 350.045C210.134 356.559 201.325 360.229 192.132 360.25Z" fill="#7E549E"/>
<path fill-rule="evenodd" clip-rule="evenodd" d="M176.247 106.101C175.83 100.409 179.428 95.4939 184.2 95.1357C188.971 94.7775 193.285 99.1158 193.703 104.807C194.12 110.499 190.542 115.414 185.75 115.773C180.959 116.131 176.665 111.792 176.247 106.101Z" fill="white"/>
<path fill-rule="evenodd" clip-rule="evenodd" d="M234.32 105.265C233.903 99.5735 237.482 94.678 242.273 94.3198C247.064 93.9616 251.359 98.2999 251.776 103.991C252.194 109.683 248.615 114.578 243.824 114.937C239.032 115.295 234.718 110.976 234.32 105.265Z" fill="white"/>
<path d="M168.156 216.051C168.772 232.907 171.993 232.708 175.989 232.21C178.176 231.952 200.84 231.335 202.491 229.564C205.075 226.778 203.306 217.842 203.186 214.459" fill="white"/>
<path d="M258.735 215.793C258.079 230.161 260.484 230.3 263.466 230.24C265.077 230.24 281.837 231.832 283.169 230.479C285.157 228.37 284.541 220.529 284.68 217.723" fill="white"/>
<path fill-rule="evenodd" clip-rule="evenodd" d="M355 274.24C355.058 234.403 340.885 195.857 315.038 165.564C315.909 171.654 316.347 177.799 316.35 183.952C316.373 201.114 312.962 218.108 306.317 233.93C299.672 249.751 289.929 264.08 277.661 276.071C277.206 298.516 268.411 319.985 252.994 336.289C237.577 352.594 216.643 362.562 194.279 364.25C206.678 371.49 217.172 381.586 224.89 393.7C232.607 405.814 237.326 419.596 238.654 433.902C272.436 423.044 301.902 401.735 322.81 373.042C343.719 344.349 354.99 309.755 355 274.24Z" fill="url(#paint2_linear)"/>
<path fill-rule="evenodd" clip-rule="evenodd" d="M261.299 108.509C242.989 106.161 204.14 106.041 189.428 108.509C157.797 113.822 131.534 136.171 132.15 168.748C132.806 204.21 154.159 224.748 188.554 224.748C195.838 224.753 203.064 223.445 209.886 220.887C219.495 217.251 230.099 217.251 239.708 220.887C247.387 223.836 255.586 225.191 263.804 224.867C295.714 223.554 317.186 200.549 317.722 168.589C318.339 134.439 294.958 112.807 261.299 108.509Z" fill="#FECB3D"/>
<path fill-rule="evenodd" clip-rule="evenodd" d="M261.399 108.509C243.088 106.161 204.24 106.041 189.528 108.509C157.897 113.822 131.633 136.171 132.25 168.748C132.906 204.21 154.258 224.748 188.673 224.748C195.951 224.752 203.171 223.445 209.986 220.887C219.595 217.255 230.198 217.255 239.807 220.887C247.486 223.839 255.685 225.193 263.904 224.867C295.714 223.554 317.265 200.549 317.802 168.589C318.438 134.439 295.058 112.807 261.399 108.509Z" fill="url(#paint3_linear)"/>
<path fill-rule="evenodd" clip-rule="evenodd" d="M194.279 364.25C192.033 364.429 189.786 364.509 187.5 364.509C163.898 364.514 141.235 355.254 124.377 338.719C107.52 322.184 97.8119 299.691 97.3383 276.071C85.0711 264.08 75.3276 249.751 68.6828 233.93C62.0379 218.108 58.6263 201.114 58.6493 183.952C58.6523 177.799 59.0908 171.654 59.9614 165.564C36.3675 193.331 22.4545 228.037 20.3289 264.427C18.2034 300.817 27.9811 336.909 48.1816 367.239C68.382 397.569 97.9052 420.485 132.281 432.517C166.657 444.549 204.013 445.043 238.694 433.922C237.365 419.609 232.642 405.82 224.916 393.702C217.191 381.584 206.688 371.487 194.279 364.25Z" fill="url(#paint4_linear)"/>
<path fill-rule="evenodd" clip-rule="evenodd" d="M137.717 67.9118C129.029 66.479 124.615 64.9068 117.836 57.6033C113.442 52.668 112.866 43.3944 103.879 44.0312C93.8591 44.7874 81.314 70.5984 93.5609 75.872C102.982 79.3373 112.97 80.998 123.005 80.7675" fill="url(#paint5_linear)"/>
<path fill-rule="evenodd" clip-rule="evenodd" d="M232.412 66.0411C239.251 61.2053 240.504 49.4839 246.07 45.5436C254.778 39.4142 263.009 53.5038 259.749 60.7675C256.488 68.0312 250.404 71.0759 244.162 72.9466" fill="url(#paint6_linear)"/>
<path fill-rule="evenodd" clip-rule="evenodd" d="M272.492 125.484C272.97 123.653 276.469 122.638 280.445 123.215C284.421 123.792 287.224 125.743 286.727 127.554C286.23 129.365 282.652 130.399 278.775 129.842C274.898 129.285 272.035 127.315 272.492 125.484Z" fill="white"/>
<path fill-rule="evenodd" clip-rule="evenodd" d="M174.418 128.33C173.921 126.181 177.5 123.892 182.37 123.235C187.241 122.579 191.695 123.792 192.192 125.942C192.689 128.091 189.13 130.36 184.239 131.036C179.349 131.713 174.935 130.479 174.418 128.33Z" fill="white"/>
</g>
<defs>
<linearGradient id="paint0_linear" x1="187.5" y1="0" x2="187.5" y2="872" gradientUnits="userSpaceOnUse">
<stop stop-color="#7E549E"/>
<stop offset="1" stop-color="#FB836F"/>
</linearGradient>
<linearGradient id="paint1_linear" x1="187.5" y1="0" x2="187.5" y2="872" gradientUnits="userSpaceOnUse">
<stop stop-color="#7E549E"/>
<stop offset="1" stop-color="#FB836F"/>
</linearGradient>
<linearGradient id="paint2_linear" x1="293.248" y1="242.24" x2="198.658" y2="678.76" gradientUnits="userSpaceOnUse">
<stop offset="0.11" stop-color="#FECB3D"/>
<stop offset="0.21" stop-color="#FEBA49"/>
<stop offset="0.38" stop-color="#FDA25A"/>
<stop offset="0.56" stop-color="#FC9166"/>
<stop offset="0.76" stop-color="#FC866E"/>
<stop offset="1" stop-color="#FC8370"/>
</linearGradient>
<linearGradient id="paint3_linear" x1="132.23" y1="165.723" x2="317.881" y2="165.723" gradientUnits="userSpaceOnUse">
<stop stop-color="#FECB3D" stop-opacity="0.5"/>
<stop offset="0.23" stop-color="#FDB24F" stop-opacity="0.68"/>
<stop offset="0.45" stop-color="#FD9D5D" stop-opacity="0.82"/>
<stop offset="0.66" stop-color="#FC8F68" stop-opacity="0.92"/>
<stop offset="0.85" stop-color="#FC866E" stop-opacity="0.98"/>
<stop offset="1" stop-color="#FC8370"/>
</linearGradient>
<linearGradient id="paint4_linear" x1="63.0828" y1="277.285" x2="181.488" y2="443.326" gradientUnits="userSpaceOnUse">
<stop offset="0.14" stop-color="#FECB3D"/>
<stop offset="0.2" stop-color="#FEC144"/>
<stop offset="0.39" stop-color="#FDA657"/>
<stop offset="0.59" stop-color="#FC9265"/>
<stop offset="0.79" stop-color="#FC876D"/>
<stop offset="1" stop-color="#FC8370"/>
</linearGradient>
<linearGradient id="paint5_linear" x1="114.754" y1="68.5088" x2="77.2591" y2="46.1725" gradientUnits="userSpaceOnUse">
<stop stop-color="#FECB3D"/>
<stop offset="0.24" stop-color="#FDB050"/>
<stop offset="0.53" stop-color="#FD9761"/>
<stop offset="0.79" stop-color="#FC886C"/>
<stop offset="1" stop-color="#FC8370"/>
</linearGradient>
<linearGradient id="paint6_linear" x1="240.987" y1="58.1068" x2="278.272" y2="34.3188" gradientUnits="userSpaceOnUse">
<stop stop-color="#FECB3D"/>
<stop offset="0.24" stop-color="#FDB050"/>
<stop offset="0.53" stop-color="#FD9761"/>
<stop offset="0.79" stop-color="#FC886C"/>
<stop offset="1" stop-color="#FC8370"/>
</linearGradient>
</defs>
</svg>
