<svg width="24" height="24" viewBox="0 0 24 24" fill="none" xmlns="http://www.w3.org/2000/svg">
<path d="M17.5918 2.38728C17.4633 2.26452 17.3106 2.16712 17.1425 2.10066C16.9744 2.03421 16.7942 2 16.6122 2C16.4302 2 16.25 2.03421 16.0819 2.10066C15.9138 2.16712 15.7612 2.26452 15.6326 2.38728L6.3237 11.2564C6.22109 11.3539 6.13968 11.4698 6.08414 11.5974C6.02859 11.725 6 11.8617 6 11.9999C6 12.138 6.02859 12.2747 6.08414 12.4023C6.13968 12.5299 6.22109 12.6458 6.3237 12.7433L15.6326 21.6124C16.175 22.1292 17.0494 22.1292 17.5918 21.6124C18.1342 21.0957 18.1342 20.2626 17.5918 19.7458L9.46727 12.0051L17.6029 4.2539C18.1342 3.73716 18.1342 2.90403 17.5918 2.38728Z" fill="black"/>
</svg>
