<svg width="24" height="24" viewBox="0 0 24 24" fill="none" xmlns="http://www.w3.org/2000/svg">
<path d="M15.6258 2.38728C15.508 2.26452 15.3681 2.16712 15.214 2.10066C15.0599 2.03421 14.8947 2 14.7279 2C14.5611 2 14.3959 2.03421 14.2418 2.10066C14.0877 2.16712 13.9477 2.26452 13.8299 2.38728L5.29673 11.2564C5.20267 11.3539 5.12804 11.4698 5.07712 11.5974C5.02621 11.725 5 11.8617 5 11.9999C5 12.138 5.02621 12.2747 5.07712 12.4023C5.12804 12.5299 5.20267 12.6458 5.29673 12.7433L13.8299 21.6124C14.3271 22.1292 15.1287 22.1292 15.6258 21.6124C16.123 21.0957 16.123 20.2626 15.6258 19.7458L8.17833 12.0051L15.636 4.2539C16.123 3.73716 16.123 2.90403 15.6258 2.38728Z" fill="black"/>
</svg>
