<svg width="24" height="24" viewBox="0 0 24 24" fill="none" xmlns="http://www.w3.org/2000/svg">
<path fill-rule="evenodd" clip-rule="evenodd" d="M15.7324 2C16.1146 2 16.4247 2.31256 16.4247 2.69767L16.4251 3.48633C17.7729 3.57945 18.8923 4.04469 19.6846 4.84473C20.5495 5.72008 21.0045 6.97867 21 8.48844V16.9749C21 20.0744 19.0467 22 15.9036 22H8.09629C4.95322 22 3 20.0475 3 16.9042V8.48658C3 5.56305 4.74189 3.68645 7.58277 3.48665L7.58334 2.69767C7.58334 2.31256 7.89349 2 8.27564 2C8.65779 2 8.96795 2.31256 8.96795 2.69767L8.96767 3.46883H15.0396L15.0401 2.69767C15.0401 2.31256 15.3503 2 15.7324 2ZM19.6153 10.2828H4.38461V16.9042C4.38461 19.2912 5.70276 20.6047 8.09629 20.6047H15.9036C18.2972 20.6047 19.6154 19.3154 19.6154 16.9749L19.6153 10.2828ZM16.1087 16.136C16.4909 16.136 16.8011 16.4486 16.8011 16.8337C16.8011 17.2188 16.4909 17.5314 16.1087 17.5314C15.7266 17.5314 15.4128 17.2188 15.4128 16.8337C15.4128 16.4486 15.7183 16.136 16.1004 16.136H16.1087ZM12.0126 16.136C12.3948 16.136 12.7049 16.4486 12.7049 16.8337C12.7049 17.2188 12.3948 17.5314 12.0126 17.5314C11.6305 17.5314 11.3166 17.2188 11.3166 16.8337C11.3166 16.4486 11.6222 16.136 12.0043 16.136H12.0126ZM7.90789 16.136C8.29004 16.136 8.60019 16.4486 8.60019 16.8337C8.60019 17.2188 8.29004 17.5314 7.90789 17.5314C7.52574 17.5314 7.21097 17.2188 7.21097 16.8337C7.21097 16.4486 7.51743 16.136 7.89958 16.136H7.90789ZM16.1087 12.5205C16.4909 12.5205 16.8011 12.8331 16.8011 13.2182C16.8011 13.6033 16.4909 13.9159 16.1087 13.9159C15.7266 13.9159 15.4128 13.6033 15.4128 13.2182C15.4128 12.8331 15.7183 12.5205 16.1004 12.5205H16.1087ZM12.0126 12.5205C12.3948 12.5205 12.7049 12.8331 12.7049 13.2182C12.7049 13.6033 12.3948 13.9159 12.0126 13.9159C11.6305 13.9159 11.3166 13.6033 11.3166 13.2182C11.3166 12.8331 11.6222 12.5205 12.0043 12.5205H12.0126ZM7.90789 12.5205C8.29004 12.5205 8.60019 12.8331 8.60019 13.2182C8.60019 13.6033 8.29004 13.9159 7.90789 13.9159C7.52574 13.9159 7.21097 13.6033 7.21097 13.2182C7.21097 12.8331 7.51743 12.5205 7.89958 12.5205H7.90789ZM15.0396 4.86417H8.96767L8.96795 5.75905C8.96795 6.14417 8.65779 6.45672 8.27564 6.45672C7.89349 6.45672 7.58334 6.14417 7.58334 5.75905L7.58285 4.88529C5.51495 5.06035 4.38461 6.32357 4.38461 8.48658V8.88741H19.6153L19.6154 8.48658C19.619 7.33774 19.3126 6.44472 18.7042 5.83077C18.1703 5.29106 17.3897 4.96873 16.4255 4.88574L16.4247 5.75905C16.4247 6.14417 16.1146 6.45672 15.7324 6.45672C15.3503 6.45672 15.0401 6.14417 15.0401 5.75905L15.0396 4.86417Z" fill="black"/>
</svg>
