<svg width="24" height="24" viewBox="0 0 24 24" fill="none" xmlns="http://www.w3.org/2000/svg">
<path d="M15.3174 3.3583C15.901 3.59298 16.3137 4.016 16.6836 4.63615L16.8055 4.85018L17.2578 5.72621L17.2726 5.75068L17.2862 5.77197L17.3246 5.82502C17.5306 6.05182 17.8754 6.18883 18.103 6.18883C20.1878 6.18883 21.8905 7.84286 21.9949 9.92222L22 10.1247V15.9791C22 18.6785 19.8898 20.8813 17.2455 20.9954L17.03 21H6.97C4.29734 21 2.11747 18.8685 2.00459 16.1969L2 15.9791V10.1247C2 7.95129 3.74498 6.18883 5.897 6.18883C6.12377 6.18883 6.46908 6.05162 6.67544 5.82502L6.68255 5.81655L6.69145 5.80477L6.74287 5.72508L7.19382 4.85046C7.59577 4.11246 8.03303 3.61911 8.68188 3.35821C9.87089 2.88058 14.1293 2.88058 15.3174 3.3583ZM9.23635 4.76624C9.01496 4.85526 8.81452 5.06131 8.60062 5.41853L8.50802 5.58097L8.12316 6.33269L8.02843 6.50588C7.94936 6.63875 7.87026 6.75092 7.77995 6.85033C7.31953 7.35591 6.65847 7.64793 6.07082 7.69684L5.897 7.7042L5.7329 7.70978C4.53997 7.79127 3.58621 8.75457 3.50553 9.95905L3.5 10.1247V15.9791C3.5 17.8504 4.95174 19.3796 6.77961 19.4794L6.97 19.4846H17.03C18.8819 19.4846 20.396 18.0174 20.4949 16.1714L20.5 15.9791V10.1247C20.5 8.84397 19.5142 7.79497 18.2671 7.70978L18.103 7.7042L17.9289 7.69684C17.3403 7.64792 16.6793 7.35583 16.2194 6.84966C16.1303 6.75156 16.0517 6.64019 15.973 6.50844L15.9542 6.47578L15.9317 6.43522L15.8156 6.21524L15.4917 5.58125C15.2729 5.18008 15.0726 4.9349 14.8564 4.81168L14.7626 4.76624L14.6433 4.72617C13.6142 4.4323 10.0344 4.44566 9.23635 4.76624ZM11.9997 9.2627C14.1699 9.2627 15.9287 11.0395 15.9287 13.2319C15.9287 15.4244 14.1699 17.2012 11.9997 17.2012C9.82949 17.2012 8.0707 15.4244 8.0707 13.2319C8.0707 11.0395 9.82949 9.2627 11.9997 9.2627ZM11.9997 10.7781C10.6579 10.7781 9.5707 11.8764 9.5707 13.2319C9.5707 14.5875 10.6579 15.6858 11.9997 15.6858C13.3415 15.6858 14.4287 14.5875 14.4287 13.2319C14.4287 11.8764 13.3415 10.7781 11.9997 10.7781ZM17.5043 8.55654C18.0566 8.55654 18.5043 9.00884 18.5043 9.56678C18.5043 10.0849 18.1183 10.5119 17.6209 10.5702L17.5043 10.577C16.943 10.577 16.4953 10.1247 16.4953 9.56678C16.4953 9.04869 16.8813 8.62169 17.3787 8.56333L17.5043 8.55654Z" fill="black"/>
</svg>
