<svg width="42" height="42" viewBox="0 0 42 42" fill="none" xmlns="http://www.w3.org/2000/svg">
<circle cx="21" cy="21" r="20" fill="#7E549E" stroke="white" stroke-width="2"/>
<path d="M23.7416 9.5C24.8733 9.51165 25.7949 10.0943 26.3316 11.1432C26.4701 11.4199 26.6634 11.8242 26.8657 12.2506L27.11 12.7663L27.2299 13.0194L27.3466 13.2758C27.3933 13.3574 27.4749 13.4156 27.5799 13.4156C30.3799 13.4156 32.6666 15.6998 32.6666 18.4967V25.419C32.6666 28.2159 30.3799 30.5 27.5799 30.5H14.4199C11.6083 30.5 9.33325 28.2159 9.33325 25.419V18.4967C9.33325 15.6998 11.6083 13.4156 14.4199 13.4156C14.5133 13.4156 14.6066 13.369 14.6416 13.2758L14.7116 13.136C15.0383 12.4484 15.4349 11.6093 15.6683 11.1432C16.2049 10.0943 17.1149 9.51165 18.2466 9.5H23.7416ZM20.9999 16.97C19.7749 16.97 18.6199 17.4478 17.7449 18.3219C16.8816 19.1959 16.4033 20.338 16.4149 21.5499C16.4149 22.7736 16.8933 23.9156 17.7566 24.7897C18.6316 25.6521 19.7749 26.1299 20.9999 26.1299C22.2599 26.1299 23.4033 25.6171 24.2316 24.7897C25.0599 23.9623 25.5733 22.8202 25.5849 21.5499C25.5849 20.338 25.1066 19.1842 24.2433 18.3102C23.3799 17.4478 22.2249 16.97 20.9999 16.97ZM20.9999 18.7181C21.7583 18.7181 22.4699 19.0094 23.0066 19.5455C23.5433 20.0816 23.8349 20.7925 23.8349 21.5499C23.8233 23.1115 22.5633 24.3818 20.9999 24.3818C20.2416 24.3818 19.5299 24.0905 18.9933 23.5544C18.4566 23.0183 18.1649 22.3074 18.1649 21.5499V21.5383C18.1533 20.8041 18.4449 20.0932 18.9816 19.5572C19.5299 19.0094 20.2416 18.7181 20.9999 18.7181ZM27.5449 16.6903C26.9616 16.6903 26.4949 17.1681 26.4949 17.7508C26.4949 18.3335 26.9616 18.7997 27.5449 18.7997C28.1283 18.7997 28.6066 18.3335 28.6066 17.7508C28.6066 17.1681 28.1283 16.6903 27.5449 16.6903Z" fill="white"/>
</svg>
