<svg width="24" height="24" viewBox="0 0 24 24" fill="none" xmlns="http://www.w3.org/2000/svg">
<path d="M18.8517 4.54665C19.194 4.20016 19.6593 4.00364 20.1457 4.00005C20.6322 3.99646 21.1003 4.18608 21.4477 4.52747C21.7951 4.86887 21.9936 5.33427 21.9998 5.82198C22.0061 6.30968 21.8195 6.78003 21.4809 7.13023L11.6838 19.4104C11.5154 19.5921 11.3123 19.7379 11.0866 19.8392C10.8608 19.9404 10.617 19.995 10.3698 19.9997C10.1225 20.0044 9.87681 19.959 9.6474 19.8664C9.41799 19.7737 9.20955 19.6357 9.03452 19.4605L2.53891 12.9502C2.19374 12.6039 1.99988 12.1344 2 11.6448C2.00012 11.1552 2.1942 10.6858 2.53954 10.3397C2.88488 9.99357 3.3532 9.7992 3.84148 9.79932C4.32975 9.79944 4.79798 9.99403 5.14316 10.3403L10.2804 15.4924L18.8029 4.60428C18.8184 4.58447 18.8351 4.56564 18.8529 4.5479L18.8517 4.54665Z" fill="black"/>
</svg>
