<svg width="20" height="20" viewBox="0 0 20 20" fill="none" xmlns="http://www.w3.org/2000/svg">
<path d="M14.334 0C17.7378 0 20 2.4295 20 5.916V14.084C20 17.5707 17.7376 20 14.333 20H5.665C2.26137 20 0 17.5707 0 14.084V5.916C0 2.4326 2.26743 0 5.665 0H14.334ZM14.334 1.5H5.665C3.12034 1.5 1.5 3.23837 1.5 5.916V14.084C1.5 16.7653 3.11476 18.5 5.665 18.5H14.333C16.8844 18.5 18.5 16.7652 18.5 14.084V5.916C18.5 3.23496 16.8845 1.5 14.334 1.5ZM14.0898 7.09667C14.3561 7.36294 14.3803 7.7796 14.1624 8.07321L14.0898 8.15733L9.34383 12.9033C9.0776 13.1696 8.66101 13.1938 8.3674 12.976L8.28328 12.9034L5.90928 10.5304C5.61633 10.2376 5.61623 9.76273 5.90906 9.46978C6.17527 9.20346 6.59193 9.17916 6.88558 9.39696L6.96972 9.46956L8.8126 11.3118L13.0292 7.09667C13.3221 6.80378 13.7969 6.80378 14.0898 7.09667Z" fill="#200E32"/>
</svg>
