<svg width="24" height="24" viewBox="0 0 24 24" fill="none" xmlns="http://www.w3.org/2000/svg">
<path fill-rule="evenodd" clip-rule="evenodd" d="M2.99807 2.99808C3.5493 2.44686 4.47979 2.48364 5.07639 3.08023L20.9198 18.9236C21.5164 19.5202 21.5531 20.4507 21.0019 21.0019C20.4507 21.5531 19.5202 21.5164 18.9236 20.9198L3.08022 5.07639C2.48363 4.4798 2.44685 3.54931 2.99807 2.99808Z" fill="black"/>
<path fill-rule="evenodd" clip-rule="evenodd" d="M21.0019 2.99808C20.4506 2.44686 19.5201 2.48364 18.9236 3.08023L3.08018 18.9236C2.48358 19.5202 2.4468 20.4507 2.99803 21.0019C3.54925 21.5531 4.47975 21.5164 5.07634 20.9198L20.9197 5.07639C21.5163 4.4798 21.5531 3.54931 21.0019 2.99808Z" fill="black"/>
</svg>
