<svg width="20" height="20" viewBox="0 0 20 20" fill="none" xmlns="http://www.w3.org/2000/svg">
<path d="M19.7071 18.2929C19.8946 18.4804 20 18.7348 20 19C20 19.2652 19.8946 19.5196 19.7071 19.7071C19.5196 19.8946 19.2652 20 19 20C18.7348 20 18.4804 19.8946 18.2929 19.7071L10 11.4141L1.70715 19.7071C1.51961 19.8946 1.26525 20 1.00002 20C0.7348 20 0.48044 19.8946 0.2929 19.7071C0.105359 19.5196 5.22817e-09 19.2652 0 19C-5.22817e-09 18.7348 0.105359 18.4804 0.2929 18.2929L8.58588 10L0.2929 1.70715C0.105359 1.51961 -1.97606e-09 1.26525 0 1.00002C1.97606e-09 0.7348 0.105359 0.48044 0.2929 0.2929C0.48044 0.105359 0.7348 1.97606e-09 1.00002 0C1.26525 -1.97606e-09 1.51961 0.105359 1.70715 0.2929L10 8.58588L18.2929 0.2929C18.4804 0.105359 18.7348 -5.22817e-09 19 0C19.2652 5.22817e-09 19.5196 0.105359 19.7071 0.2929C19.8946 0.48044 20 0.7348 20 1.00002C20 1.26525 19.8946 1.51961 19.7071 1.70715L11.4141 10L19.7071 18.2929Z" fill="black"/>
</svg>
