<svg width="24" height="24" viewBox="0 0 24 24" fill="none" xmlns="http://www.w3.org/2000/svg">
<circle cx="12" cy="12" r="12" fill="#7e549e"/>
<path fill-rule="evenodd" clip-rule="evenodd" d="M6.65003 6.65001C6.82581 6.47445 7.06409 6.37583 7.31253 6.37583C7.56097 6.37583 7.79925 6.47445 7.97503 6.65001L12 10.675L16.025 6.65001C16.1109 6.5579 16.2144 6.48402 16.3294 6.43278C16.4444 6.38154 16.5685 6.35399 16.6944 6.35177C16.8203 6.34955 16.9453 6.3727 17.062 6.41986C17.1788 6.46701 17.2848 6.53719 17.3738 6.62621C17.4629 6.71523 17.533 6.82128 17.5802 6.93801C17.6273 7.05475 17.6505 7.17978 17.6483 7.30566C17.646 7.43154 17.6185 7.55568 17.5673 7.67068C17.516 7.78568 17.4421 7.88918 17.35 7.97501L13.325 12L17.35 16.025C17.4421 16.1108 17.516 16.2143 17.5673 16.3293C17.6185 16.4443 17.646 16.5685 17.6483 16.6944C17.6505 16.8202 17.6273 16.9453 17.5802 17.062C17.533 17.1787 17.4629 17.2848 17.3738 17.3738C17.2848 17.4628 17.1788 17.533 17.062 17.5802C16.9453 17.6273 16.8203 17.6505 16.6944 17.6482C16.5685 17.646 16.4444 17.6185 16.3294 17.5672C16.2144 17.516 16.1109 17.4421 16.025 17.35L12 13.325L7.97503 17.35C7.79731 17.5156 7.56225 17.6058 7.31938 17.6015C7.0765 17.5972 6.84477 17.4988 6.673 17.327C6.50124 17.1553 6.40285 16.9235 6.39856 16.6807C6.39428 16.4378 6.48443 16.2027 6.65003 16.025L10.675 12L6.65003 7.97501C6.47447 7.79923 6.37585 7.56095 6.37585 7.31251C6.37585 7.06407 6.47447 6.82579 6.65003 6.65001Z" fill="white"/>
</svg>
