<svg width="16" height="16" viewBox="0 0 16 16" fill="none" xmlns="http://www.w3.org/2000/svg">
<path d="M13.9185 13.1506C14.3312 13.1506 14.6668 13.4906 14.6668 13.9087C14.6668 14.3275 14.3312 14.6667 13.9185 14.6667H9.68882C9.27615 14.6667 8.94051 14.3275 8.94051 13.9087C8.94051 13.4906 9.27615 13.1506 9.68882 13.1506H13.9185ZM10.9852 1.8512L12.0778 2.71914C12.5259 3.0695 12.8246 3.53134 12.9268 4.01707C13.0447 4.55137 12.9189 5.07612 12.5652 5.53L6.05675 13.9466C5.75806 14.3288 5.31787 14.5438 4.84625 14.5518L2.25231 14.5837C2.11082 14.5837 1.99291 14.4881 1.96147 14.3527L1.37194 11.7967C1.26975 11.3269 1.37194 10.8412 1.67064 10.4669L6.28471 4.49484C6.36331 4.39928 6.5048 4.38415 6.59912 4.45502L8.54065 5.9998C8.66642 6.10331 8.83934 6.15905 9.02013 6.13517C9.4053 6.08739 9.66469 5.73703 9.62539 5.36278C9.60181 5.17167 9.50748 5.01242 9.38171 4.89297C9.34241 4.86112 7.49521 3.38005 7.49521 3.38005C7.37731 3.2845 7.35372 3.10932 7.44805 2.99067L8.17907 2.04231C8.85507 1.17436 10.0341 1.09474 10.9852 1.8512Z" fill="#7E549E"/>
</svg>
