<svg width="24" height="24" viewBox="0 0 24 24" fill="none" xmlns="http://www.w3.org/2000/svg">
<path fill-rule="evenodd" clip-rule="evenodd" d="M21.2308 20.4159C21.6554 20.4159 22 20.7707 22 21.2079C22 21.6451 21.6554 21.9999 21.2308 21.9999H13.792C13.3674 21.9999 13.0228 21.6451 13.0228 21.2079C13.0228 20.7707 13.3674 20.4159 13.792 20.4159H21.2308ZM16.4779 2.69024C16.5292 2.73142 18.245 4.1042 18.245 4.1042C18.8686 4.48647 19.3558 5.16969 19.5404 5.97858C19.724 6.77902 19.5906 7.6048 19.1629 8.3028C19.1601 8.30746 19.1573 8.31206 19.1473 8.32574L19.1396 8.33632C19.0702 8.43052 18.7684 8.8234 17.2453 10.7882C17.2312 10.8139 17.2152 10.838 17.1977 10.8615C17.172 10.896 17.144 10.9278 17.1142 10.9567C17.0103 11.0913 16.9006 11.2329 16.7852 11.3816L16.5514 11.6831C16.0691 12.305 15.497 13.0425 14.8182 13.9173L14.4699 14.3662C13.1595 16.0549 11.4812 18.217 9.33139 20.9863C8.86063 21.5903 8.155 21.9419 7.39707 21.9514L3.66486 22H3.6546C3.29871 22 2.98898 21.7487 2.9059 21.3907L2.06592 17.7254C1.89259 16.9661 2.0649 16.1826 2.5377 15.5743L12.199 3.1327C12.2031 3.12847 12.2062 3.12319 12.2103 3.11897C13.2698 1.81483 15.1856 1.62264 16.4779 2.69024ZM11.1218 7.05501L3.7387 16.5638C3.56332 16.7898 3.49871 17.0812 3.56332 17.3611L4.26176 20.4076L7.37861 20.3674C7.67501 20.3643 7.94885 20.2281 8.13039 19.9957C9.06522 18.7915 10.2401 17.2779 11.4481 15.7215L11.8755 15.1709L12.3036 14.6193C13.4365 13.1595 14.5557 11.7173 15.4921 10.51L11.1218 7.05501ZM13.3949 4.12955L12.0828 5.81739L16.4527 9.27145C17.2939 8.1867 17.8472 7.47227 17.8984 7.40416C18.0666 7.12327 18.1322 6.72622 18.044 6.34395C17.9537 5.95218 17.7168 5.61954 17.3753 5.40729C17.3025 5.35555 15.5743 3.97432 15.521 3.93102C14.8707 3.39458 13.922 3.48751 13.3949 4.12955Z" fill="black"/>
</svg>
