<svg width="24" height="24" viewBox="0 0 24 24" fill="none" xmlns="http://www.w3.org/2000/svg">
<path fill-rule="evenodd" clip-rule="evenodd" d="M12.0026 4C16.1386 4.00298 19.8525 6.88308 21.9385 11.7054C22.0205 11.8932 22.0205 12.1058 21.9385 12.2936C19.8535 17.1169 16.1386 19.997 12.0026 20H11.9966C7.86068 19.997 4.14672 17.1169 2.06075 12.2936C1.97975 12.1058 1.97975 11.8932 2.06075 11.7054C4.14672 6.88308 7.86168 4.00298 11.9966 4H12.0026ZM11.9996 5.49022C8.56367 5.49121 5.42971 7.91829 3.56973 11.9995C5.42971 16.0817 8.56267 18.5088 11.9996 18.5098C15.4366 18.5088 18.5695 16.0817 20.4295 11.9995C18.5695 7.91829 15.4366 5.49121 11.9996 5.49022ZM11.9993 8.1138C14.1563 8.1138 15.9113 9.85736 15.9113 12.0003C15.9113 14.1422 14.1563 15.8848 11.9993 15.8848C9.84235 15.8848 8.08837 14.1422 8.08837 12.0003C8.08837 9.85736 9.84235 8.1138 11.9993 8.1138ZM11.9993 9.60402C10.6693 9.60402 9.58836 10.679 9.58836 12.0003C9.58836 13.3206 10.6693 14.3946 11.9993 14.3946C13.3293 14.3946 14.4113 13.3206 14.4113 12.0003C14.4113 10.679 13.3293 9.60402 11.9993 9.60402Z" fill="black"/>
</svg>
