<svg width="20" height="16" viewBox="0 0 20 16" fill="none" xmlns="http://www.w3.org/2000/svg">
<path fill-rule="evenodd" clip-rule="evenodd" d="M10.0026 0C14.1386 0.00298044 17.8525 2.88308 19.9385 7.70543C20.0205 7.8932 20.0205 8.10581 19.9385 8.29357C17.8535 13.1169 14.1386 15.997 10.0026 16H9.99662C5.86068 15.997 2.14672 13.1169 0.0607492 8.29357C-0.0202497 8.10581 -0.0202497 7.8932 0.0607492 7.70543C2.14672 2.88308 5.86168 0.00298044 9.99662 0H10.0026ZM9.99963 1.49022C6.56367 1.49121 3.42971 3.91829 1.56973 7.9995C3.42971 12.0817 6.56267 14.5088 9.99963 14.5098C13.4366 14.5088 16.5695 12.0817 18.4295 7.9995C16.5695 3.91829 13.4366 1.49121 9.99963 1.49022ZM9.99933 4.1138C12.1563 4.1138 13.9113 5.85736 13.9113 8.0003C13.9113 10.1422 12.1563 11.8848 9.99933 11.8848C7.84235 11.8848 6.08837 10.1422 6.08837 8.0003C6.08837 5.85736 7.84235 4.1138 9.99933 4.1138ZM9.99933 5.60402C8.66934 5.60402 7.58836 6.67897 7.58836 8.0003C7.58836 9.32063 8.66934 10.3946 9.99933 10.3946C11.3293 10.3946 12.4113 9.32063 12.4113 8.0003C12.4113 6.67897 11.3293 5.60402 9.99933 5.60402Z" fill="#FECB3D"/>
</svg>
