<svg width="20" height="18" viewBox="0 0 20 18" fill="none" xmlns="http://www.w3.org/2000/svg">
<path fill-rule="evenodd" clip-rule="evenodd" d="M18.417 0.228989C18.71 0.534308 18.71 1.02928 18.417 1.3346L2.64334 17.7708C2.49734 17.9239 2.30535 18 2.11335 18C1.92136 18 1.72936 17.9239 1.58336 17.7708C1.29037 17.4654 1.29037 16.9715 1.58336 16.6662L3.55527 14.6126C2.14148 13.265 0.942195 11.4485 0.0614986 9.30957C-0.0204995 9.11158 -0.0204995 8.88858 0.0614986 8.69163C1.08248 6.22824 2.52044 4.18896 4.22041 2.79575C7.51316 0.0802363 11.842 -0.0639039 15.2683 2.40533L17.357 0.228989C17.65 -0.0763297 18.124 -0.0763297 18.417 0.228989ZM18.0468 5.25268C18.7708 6.25409 19.4068 7.4118 19.9377 8.68934C20.0207 8.88733 20.0207 9.11241 19.9377 9.30936C17.8418 14.3706 14.1269 17.3914 9.99998 17.3914C9.063 17.3914 8.13102 17.2331 7.23104 16.9215C6.83805 16.785 6.62505 16.3421 6.75605 15.9326C6.88704 15.522 7.31004 15.3042 7.70503 15.4376C8.45201 15.6971 9.22399 15.8284 9.99998 15.8284C13.4279 15.8284 16.5608 13.2837 18.4298 8.99987C17.9738 7.95887 17.4428 7.01582 16.8488 6.1926C16.5998 5.84769 16.6658 5.35689 16.9968 5.09742C17.3268 4.83795 17.7978 4.90881 18.0468 5.25268ZM5.14938 4.02328C3.71342 5.20079 2.48044 6.91599 1.57046 9.00216C2.36389 10.8283 3.40625 12.3683 4.61695 13.5056L6.7547 11.2782C6.31979 10.6113 6.08576 9.82511 6.08576 9.00175C6.08576 6.75093 7.84172 4.92006 9.99967 4.92006C10.7826 4.92006 11.5485 5.16849 12.1862 5.6175L14.1877 3.53196C11.3349 1.61019 7.86281 1.7855 5.14938 4.02328ZM13.2372 8.8173C13.6452 8.89337 13.9162 9.29977 13.8432 9.72492C13.5562 11.3849 12.2942 12.702 10.7023 13.0042C10.6573 13.0126 10.6113 13.0167 10.5673 13.0167C10.2123 13.0167 9.89628 12.7521 9.83028 12.3748C9.75628 11.9507 10.0263 11.5433 10.4343 11.4662C11.4142 11.2807 12.1902 10.47 12.3662 9.44774C12.4402 9.02363 12.8302 8.74436 13.2372 8.8173ZM9.99967 6.48313C8.6687 6.48313 7.58573 7.6127 7.58573 9.00175C7.58573 9.40333 7.67645 9.79098 7.84747 10.1391L11.093 6.7566C10.7589 6.57916 10.3831 6.48313 9.99967 6.48313Z" fill="#FECB3D"/>
</svg>
