<svg width="24" height="24" viewBox="0 0 24 24" fill="none" xmlns="http://www.w3.org/2000/svg">
<path fill-rule="evenodd" clip-rule="evenodd" d="M20.417 3.22899C20.71 3.53431 20.71 4.02928 20.417 4.3346L4.64334 20.7708C4.49734 20.9239 4.30535 21 4.11335 21C3.92136 21 3.72936 20.9239 3.58336 20.7708C3.29037 20.4654 3.29037 19.9715 3.58336 19.6662L5.55527 17.6126C4.14148 16.265 2.9422 14.4485 2.0615 12.3096C1.9795 12.1116 1.9795 11.8886 2.0615 11.6916C3.08248 9.22824 4.52044 7.18896 6.22041 5.79575C9.51316 3.08024 13.842 2.9361 17.2683 5.40533L19.357 3.22899C19.65 2.92367 20.124 2.92367 20.417 3.22899ZM20.0468 8.25268C20.7708 9.25409 21.4068 10.4118 21.9377 11.6893C22.0207 11.8873 22.0207 12.1124 21.9377 12.3094C19.8418 17.3706 16.1269 20.3914 12 20.3914C11.063 20.3914 10.131 20.2331 9.23104 19.9215C8.83805 19.785 8.62505 19.3421 8.75605 18.9326C8.88704 18.522 9.31004 18.3042 9.70503 18.4376C10.452 18.6971 11.224 18.8284 12 18.8284C15.4279 18.8284 18.5608 16.2837 20.4298 11.9999C19.9738 10.9589 19.4428 10.0158 18.8488 9.1926C18.5998 8.84769 18.6658 8.35689 18.9968 8.09742C19.3268 7.83795 19.7978 7.90881 20.0468 8.25268ZM7.14938 7.02328C5.71342 8.20079 4.48044 9.91599 3.57046 12.0022C4.36389 13.8283 5.40625 15.3683 6.61695 16.5056L8.7547 14.2782C8.31979 13.6113 8.08576 12.8251 8.08576 12.0017C8.08576 9.75093 9.84172 7.92006 11.9997 7.92006C12.7826 7.92006 13.5485 8.16849 14.1862 8.6175L16.1877 6.53196C13.3349 4.61019 9.86281 4.7855 7.14938 7.02328ZM15.2372 11.8173C15.6452 11.8934 15.9162 12.2998 15.8432 12.7249C15.5562 14.3849 14.2942 15.702 12.7023 16.0042C12.6573 16.0126 12.6113 16.0167 12.5673 16.0167C12.2123 16.0167 11.8963 15.7521 11.8303 15.3748C11.7563 14.9507 12.0263 14.5433 12.4343 14.4662C13.4142 14.2807 14.1902 13.47 14.3662 12.4477C14.4402 12.0236 14.8302 11.7444 15.2372 11.8173ZM11.9997 9.48313C10.6687 9.48313 9.58573 10.6127 9.58573 12.0017C9.58573 12.4033 9.67645 12.791 9.84747 13.1391L13.093 9.7566C12.7589 9.57916 12.3831 9.48313 11.9997 9.48313Z" fill="black"/>
</svg>
