<svg width="20" height="18" viewBox="0 0 20 18" fill="none" xmlns="http://www.w3.org/2000/svg">
<path d="M7.59126 11.2913L7.91106 11.2926C12.5556 11.3307 15.1835 12.2166 15.1835 14.6362C15.1835 17.0045 12.6649 17.9182 8.22343 17.9947L7.59126 18C2.74676 18 0 17.1304 0 14.6551C0 12.1765 2.75769 11.2913 7.59126 11.2913ZM7.59126 12.7078C3.57377 12.7078 1.50005 13.3735 1.50005 14.6551C1.50005 15.9285 3.5688 16.5835 7.59126 16.5835C11.609 16.5835 13.6835 15.9176 13.6835 14.6362C13.6835 13.3634 11.6128 12.7078 7.59126 12.7078ZM15.5872 10.6225C16.1678 10.6598 16.745 10.7384 17.2997 10.8545C18.4878 11.0777 19.3711 11.4943 19.7759 12.2962C20.0747 12.8899 20.0747 13.5807 19.7759 14.1743C19.3735 14.9743 18.4993 15.3879 17.3045 15.6199C16.8988 15.6988 16.5022 15.452 16.4187 15.0689C16.3353 14.6857 16.5966 14.3113 17.0023 14.2324C17.7712 14.0831 18.2829 13.841 18.4211 13.5664C18.5262 13.3574 18.5262 13.1132 18.4214 12.905C18.2823 12.6294 17.7679 12.3867 16.9913 12.2407C16.4939 12.1367 15.991 12.0682 15.4854 12.0358C15.0722 12.0092 14.7599 11.6713 14.788 11.2811C14.8162 10.8908 15.174 10.5959 15.5872 10.6225ZM7.59126 0C10.4394 0 12.7264 2.15938 12.7264 4.84835C12.7264 7.53809 10.4396 9.69765 7.59126 9.69765C4.74309 9.69765 2.45709 7.53823 2.45709 4.84835C2.45709 2.15925 4.74327 0 7.59126 0ZM14.0202 1.01009C16.2552 1.01009 18.0673 2.72172 18.0673 4.83192C18.0673 6.94277 16.2555 8.65375 14.0202 8.65375C13.606 8.65375 13.2702 8.33665 13.2702 7.94548C13.2702 7.55431 13.606 7.23721 14.0202 7.23721C15.427 7.23721 16.5673 6.16043 16.5673 4.83192C16.5673 3.50399 15.4266 2.42663 14.0202 2.42663C13.606 2.42663 13.2702 2.10953 13.2702 1.71836C13.2702 1.32719 13.606 1.01009 14.0202 1.01009ZM7.59126 1.41654C5.57178 1.41654 3.95714 2.94154 3.95714 4.84835C3.95714 6.75599 5.57165 8.2811 7.59126 8.2811C9.61112 8.2811 11.2264 6.75576 11.2264 4.84835C11.2264 2.94177 9.61099 1.41654 7.59126 1.41654Z" fill="#200E32"/>
</svg>
