<svg width="24" height="24" viewBox="0 0 24 24" fill="none" xmlns="http://www.w3.org/2000/svg">
<path fill-rule="evenodd" clip-rule="evenodd" d="M9.59971 14.2943C12.862 14.2943 17.1994 14.6409 17.1994 17.6399C17.1994 20.7991 12.1454 20.9886 9.9775 21L9.1904 21C6.87889 20.9887 2 20.8002 2 17.6588C2 14.4961 7.05402 14.3064 9.22192 14.295L9.48239 14.2943C9.52298 14.2943 9.56212 14.2943 9.59971 14.2943ZM9.59971 15.7111C6.81789 15.7111 3.50152 16.0483 3.50152 17.6588C3.50152 18.9359 5.55361 19.5839 9.59971 19.5839C13.6458 19.5839 15.6979 18.9293 15.6979 17.6399C15.6979 16.36 13.6458 15.7111 9.59971 15.7111ZM18.7237 13.853C21.4324 14.2356 22 15.4191 22 16.3439C22 17.0325 21.6847 17.9648 20.1802 18.5022C20.0931 18.5334 20.003 18.5485 19.9139 18.5485C19.6106 18.5485 19.3253 18.3738 19.2122 18.0913C19.065 17.7258 19.2602 17.3158 19.6476 17.1779C20.4985 16.8738 20.4985 16.5026 20.4985 16.3439C20.4985 15.8083 19.8268 15.4418 18.5025 15.2557C18.092 15.1972 17.8087 14.8363 17.8698 14.45C17.9319 14.0627 18.3213 13.803 18.7237 13.853ZM9.59971 3C12.4336 3 14.74 5.1763 14.74 7.85038C14.7459 9.13878 14.2164 10.3554 13.2514 11.2716C12.2884 12.1888 11.0021 12.696 9.63375 12.7008H9.59971C6.76484 12.7008 4.4585 10.5245 4.4585 7.85038C4.4585 5.1763 6.76484 3 9.59971 3ZM16.6945 4.06151C18.6615 4.36566 20.089 5.95349 20.089 7.83602C20.085 9.72989 18.5864 11.3564 16.6024 11.619C16.5674 11.6238 16.5324 11.6256 16.4973 11.6256C16.1289 11.6256 15.8076 11.3697 15.7546 11.0155C15.6975 10.6282 15.9828 10.2692 16.3932 10.2154C17.6425 10.0501 18.5854 9.02713 18.5874 7.83508C18.5874 6.65058 17.6885 5.65123 16.4523 5.46042C16.0429 5.39619 15.7656 5.03253 15.8326 4.6462C15.8997 4.25987 16.2871 4.00011 16.6945 4.06151ZM9.59971 4.41686C7.59268 4.41686 5.96002 5.95746 5.96002 7.85038C5.96002 9.7433 7.59268 11.2839 9.59971 11.2839H9.63074C10.5957 11.2801 11.5046 10.9221 12.1863 10.2732C12.869 9.62618 13.2424 8.76567 13.2384 7.85321C13.2384 5.95746 11.6058 4.41686 9.59971 4.41686Z" fill="black"/>
</svg>
