<svg width="24" height="24" viewBox="0 0 24 24" fill="none" xmlns="http://www.w3.org/2000/svg">
<path d="M8.27995 3.00015C8.90994 3.01931 9.51994 3.12931 10.1109 3.33031H10.1699C10.2099 3.34931 10.2399 3.37031 10.2599 3.38931C10.4809 3.46031 10.6899 3.54031 10.8899 3.6503L11.2699 3.8203C11.4199 3.9003 11.5999 4.0493 11.6999 4.1103C11.7999 4.16929 11.9099 4.23029 11.9999 4.29929C13.1109 3.45031 14.4599 2.99031 15.8499 3.00015C16.4809 3.00015 17.1109 3.08931 17.7099 3.29031C21.4008 4.49029 22.7308 8.54022 21.6198 12.0802C20.9898 13.8891 19.9598 15.5401 18.6108 16.8891C16.6799 18.7591 14.5609 20.419 12.2799 21.849L12.0299 22L11.7699 21.839C9.48094 20.419 7.34996 18.7591 5.40098 16.8791C4.06099 15.5301 3.03001 13.8891 2.39001 12.0802C1.26002 8.54022 2.59001 4.49029 6.32097 3.26931C6.61097 3.16931 6.90997 3.09931 7.20996 3.06031H7.32996C7.61096 3.01931 7.88996 3.00015 8.16995 3.00015H8.27995ZM17.1899 6.16026C16.7799 6.01926 16.3299 6.24026 16.1799 6.66025C16.0399 7.08025 16.2599 7.54024 16.6799 7.68924C17.3209 7.92923 17.7499 8.56022 17.7499 9.25921V9.29021C17.7309 9.51921 17.7999 9.7402 17.9398 9.9102C18.0798 10.0802 18.2898 10.1792 18.5098 10.2002C18.9198 10.1892 19.2698 9.8602 19.2998 9.43921V9.32021C19.3298 7.91923 18.4808 6.65025 17.1899 6.16026Z" fill="black"/>
</svg>
