<svg width="24" height="24" viewBox="0 0 24 24" fill="none" xmlns="http://www.w3.org/2000/svg">
<path fill-rule="evenodd" clip-rule="evenodd" d="M11.9986 4.01242C13.5871 3.01083 15.6972 2.73413 17.5201 3.31676C21.4853 4.59213 22.7163 8.90342 21.6153 12.3339C19.9164 17.7218 12.6609 21.7408 12.3532 21.9094C12.2438 21.9698 12.1227 22 12.0015 22C11.8804 22 11.7602 21.9708 11.6508 21.9113C11.3451 21.7447 4.14232 17.7852 2.38681 12.3349C2.38584 12.3349 2.38584 12.3339 2.38584 12.3339C1.28388 8.90244 2.51088 4.59018 6.47224 3.31676C8.33227 2.71659 10.3594 2.98063 11.9986 4.01242ZM6.92162 4.70807C3.71638 5.73888 2.91141 9.1772 3.78184 11.8887C5.15146 16.1386 10.5625 19.575 12.0006 20.4255C13.4434 19.5662 18.8936 16.0918 20.2193 11.8926C21.0897 9.17817 20.2818 5.73986 17.0717 4.70807C15.5164 4.2102 13.7023 4.51321 12.4499 5.47972C12.1881 5.68042 11.8247 5.68432 11.5609 5.48556C10.2343 4.4908 8.50128 4.19948 6.92162 4.70807ZM16.1339 6.64294C17.4654 7.0726 18.3983 8.24859 18.5126 9.63892C18.5449 10.0413 18.2449 10.394 17.8415 10.4262C17.821 10.4281 17.8014 10.4291 17.7809 10.4291C17.4029 10.4291 17.0824 10.1397 17.0512 9.75778C16.9867 8.95691 16.4494 8.28074 15.6845 8.03424C15.2986 7.90953 15.0876 7.4974 15.2117 7.1145C15.3377 6.73062 15.747 6.52212 16.1339 6.64294Z" fill="black"/>
</svg>
