<svg width="24" height="24" viewBox="0 0 24 24" fill="none" xmlns="http://www.w3.org/2000/svg">
<path fill-rule="evenodd" clip-rule="evenodd" d="M13.4312 15.2909C14.6059 15.2909 15.562 16.1958 15.562 17.3081V20.1688C15.562 20.4078 15.7629 20.5994 16.0205 20.605H17.88C19.3454 20.605 20.5366 19.4834 20.5366 18.1051V9.99177C20.5298 9.51747 20.2927 9.07106 19.8859 8.77439L13.4537 3.88442C12.5902 3.23249 11.3824 3.23249 10.5161 3.88628L4.1278 8.77253C3.70537 9.0785 3.46829 9.52491 3.46341 10.0076V18.1051C3.46341 19.4834 4.65463 20.605 6.12 20.605H7.99707C8.26146 20.605 8.4761 20.405 8.4761 20.1595C8.4761 20.1056 8.48293 20.0516 8.49463 20.0005V17.3081C8.49463 16.2023 9.44488 15.2984 10.6107 15.2909H13.4312ZM17.88 22H16.0029C14.9278 21.9758 14.0985 21.1714 14.0985 20.1688V17.3081C14.0985 16.965 13.799 16.6859 13.4312 16.6859H10.6156C10.2556 16.6878 9.95805 16.9677 9.95805 17.3081V20.1595C9.95805 20.2293 9.94829 20.2962 9.92781 20.3595C9.82244 21.2802 8.99707 22 7.99707 22H6.12C3.8478 22 2 20.2525 2 18.1051V10.0011C2.00976 9.07664 2.45659 8.23034 3.22829 7.67327L9.6039 2.79539C11.0078 1.73518 12.9639 1.73518 14.3649 2.79353L20.7863 7.67606C21.5405 8.22383 21.9873 9.06827 22 9.98154V18.1051C22 20.2525 20.1522 22 17.88 22Z" fill="black"/>
</svg>
