<svg width="20" height="20" viewBox="0 0 20 20" fill="none" xmlns="http://www.w3.org/2000/svg">
<path d="M14.354 0C17.731 0 20 2.362 20 5.888V14.102C20 14.253 19.973 14.388 19.965 14.534C19.96 14.619 19.961 14.704 19.954 14.789C19.95 14.827 19.939 14.862 19.935 14.9C19.902 15.214 19.851 15.514 19.78 15.805C19.762 15.883 19.741 15.958 19.72 16.034C19.64 16.316 19.546 16.585 19.433 16.842C19.4 16.914 19.364 16.983 19.33 17.054C19.208 17.299 19.076 17.534 18.923 17.752L18.775 17.944C18.616 18.15 18.45 18.347 18.262 18.526C18.201 18.584 18.132 18.634 18.068 18.689C17.875 18.855 17.678 19.014 17.461 19.15C17.383 19.199 17.297 19.235 17.217 19.279C16.996 19.401 16.773 19.52 16.53 19.612C16.43 19.65 16.319 19.67 16.215 19.703C15.976 19.777 15.74 19.854 15.483 19.898C15.4183 19.9093 15.3518 19.9173 15.2842 19.9236L14.874 19.953C14.7 19.966 14.535 20 14.354 20H5.638C5.262 20 4.903 19.962 4.556 19.905C4.543 19.903 4.531 19.901 4.519 19.899C3.166 19.666 2.043 19.013 1.256 18.028C1.247 18.028 1.247 18.018 1.238 18.009C0.447 17.013 0 15.674 0 14.102V5.888C0 2.362 2.271 0 5.638 0H14.354ZM14.354 1.395H5.638C3.061 1.395 1.396 3.162 1.396 5.888V14.102C1.396 14.867 1.538 15.55 1.781 16.141C1.812 16.104 3.749 13.742 3.758 13.734C4.45 12.944 5.749 11.766 7.454 12.479C7.864 12.649 8.224 12.888 8.554 13.098C9.127 13.481 9.464 13.661 9.814 13.631C9.959 13.611 10.095 13.568 10.224 13.488C10.782 13.144 12.359 10.844 12.454 10.719C13.544 9.299 15.224 8.919 16.624 9.759C16.718 9.815 17.1017 10.0782 17.5177 10.3748L17.8318 10.6006C18.1438 10.8273 18.4377 11.0482 18.605 11.19V5.888C18.605 3.162 16.94 1.395 14.354 1.395ZM6.47928 3.9996C7.17696 3.9996 7.80874 4.29298 8.26126 4.76104C8.71572 5.21269 9.0006 5.83515 9.0006 6.51456C9.0006 7.86951 7.86688 8.9996 6.50545 8.9996C5.30874 8.9996 4.28839 8.12525 4.05971 6.99323C4.02192 6.82338 4.0006 6.6487 4.0006 6.46824C4.0006 5.10363 5.10913 3.9996 6.47928 3.9996Z" fill="#200E32"/>
</svg>
