<svg width="24" height="24" viewBox="0 0 24 24" fill="none" xmlns="http://www.w3.org/2000/svg">
<path fill-rule="evenodd" clip-rule="evenodd" d="M16.3335 2C17.945 2 19.3351 2.53818 20.3523 3.55742C21.4157 4.62176 21.9989 6.17016 21.9969 7.918L21.9984 14.9298C22.0002 14.9568 22.0005 14.9838 21.9993 15.0108L21.9969 16.0809C21.9969 19.6197 19.7189 21.9979 16.3285 21.9979H7.66344C4.276 21.9979 2 19.6197 2 16.0809V7.917C2 4.37823 4.276 2 7.66344 2H16.3335ZM16.6107 12.8562C16.0214 12.8562 15.3299 13.8313 14.7175 14.6922C13.8777 15.8748 13.0088 17.0985 11.6999 17.0985C10.815 17.0985 10.0042 16.7577 9.28962 16.4561C8.15312 15.977 7.63799 15.8237 7.13388 16.2386C6.12476 17.0701 5.12765 18.5844 4.66949 19.3295C5.39263 20.0751 6.41987 20.4946 7.66344 20.4946H16.3285C18.859 20.4946 20.4936 18.7628 20.4936 16.0809L20.4936 15.2802L20.4705 15.2558C19.5932 14.3519 18.0782 12.8562 16.6107 12.8562ZM16.3335 3.5033H7.66344C5.13689 3.5033 3.5033 5.23611 3.5033 7.917V16.0809C3.5033 16.751 3.60528 17.3617 3.79767 17.901C4.37763 17.0253 5.25354 15.8398 6.17878 15.078C7.43354 14.0458 8.78451 14.613 9.8729 15.071C10.5133 15.3406 11.1186 15.5952 11.6999 15.5952C12.2331 15.5952 12.9016 14.6531 13.4929 13.8223C14.3137 12.6637 15.2457 11.3528 16.6107 11.3528C18.1087 11.3528 19.4655 12.2734 20.4947 13.187L20.4936 7.917C20.4956 6.551 20.0787 5.41049 19.289 4.61976C18.5594 3.88915 17.5381 3.5033 16.3335 3.5033ZM8.8721 6.19872C10.3062 6.19973 11.4728 7.36629 11.4738 8.79944V8.80044C11.4738 10.2346 10.3073 11.4012 8.8721 11.4012C7.43695 11.4012 6.27038 10.2346 6.27038 8.80044C6.27038 7.36529 7.43695 6.19872 8.8721 6.19872ZM8.8711 7.70203C8.26577 7.70203 7.77369 8.19411 7.77369 8.80044C7.77369 9.40577 8.26577 9.89785 8.8721 9.89785C9.47743 9.89785 9.97051 9.40577 9.97051 8.80144C9.96951 8.19511 9.47643 7.70303 8.8711 7.70203Z" fill="black"/>
</svg>
