<svg width="20" height="4" viewBox="0 0 20 4" fill="none" xmlns="http://www.w3.org/2000/svg">
<path fill-rule="evenodd" clip-rule="evenodd" d="M3.6 1.8C3.6 2.03638 3.55344 2.27044 3.46298 2.48883C3.37252 2.70722 3.23994 2.90565 3.07279 3.07279C2.90565 3.23994 2.70722 3.37252 2.48883 3.46298C2.27044 3.55344 2.03638 3.6 1.8 3.6C1.56362 3.6 1.32956 3.55344 1.11117 3.46298C0.892784 3.37252 0.694353 3.23994 0.527208 3.07279C0.360062 2.90565 0.227475 2.70722 0.137017 2.48883C0.0465584 2.27044 -3.52233e-09 2.03638 0 1.8C7.11366e-09 1.32261 0.189642 0.864773 0.527208 0.527208C0.864773 0.189642 1.32261 0 1.8 0C2.27739 0 2.73523 0.189642 3.07279 0.527208C3.41036 0.864773 3.6 1.32261 3.6 1.8ZM11.6 1.8C11.6 2.27739 11.4104 2.73523 11.0728 3.07279C10.7352 3.41036 10.2774 3.6 9.8 3.6C9.32261 3.6 8.86477 3.41036 8.52721 3.07279C8.18964 2.73523 8 2.27739 8 1.8C8 1.32261 8.18964 0.864773 8.52721 0.527208C8.86477 0.189642 9.32261 0 9.8 0C10.2774 0 10.7352 0.189642 11.0728 0.527208C11.4104 0.864773 11.6 1.32261 11.6 1.8ZM17.8 3.6C18.2774 3.6 18.7352 3.41036 19.0728 3.07279C19.4104 2.73523 19.6 2.27739 19.6 1.8C19.6 1.32261 19.4104 0.864773 19.0728 0.527208C18.7352 0.189642 18.2774 0 17.8 0C17.3226 0 16.8648 0.189642 16.5272 0.527208C16.1896 0.864773 16 1.32261 16 1.8C16 2.27739 16.1896 2.73523 16.5272 3.07279C16.8648 3.41036 17.3226 3.6 17.8 3.6Z" fill="black"/>
</svg>
