<svg width="24" height="24" viewBox="0 0 24 24" fill="none" xmlns="http://www.w3.org/2000/svg">
<path d="M9.87749 14.4562L10.2016 14.4576C15.0178 14.4993 17.7545 15.4875 17.7545 18.1362C17.7545 20.7224 15.1485 21.7088 10.521 21.7897L9.87749 21.7952C4.86011 21.7952 2.00049 20.8227 2.00049 18.1152C2.00049 15.4106 4.84748 14.4562 9.87749 14.4562ZM9.87749 15.9562L9.54077 15.9578C5.55385 15.996 3.50049 16.722 3.50049 18.1152C3.50049 19.5553 5.67602 20.2952 9.87749 20.2952C14.0843 20.2952 16.2545 19.5674 16.2545 18.1362C16.2545 16.696 14.079 15.9562 9.87749 15.9562ZM19.2042 7.91908C19.5839 7.91908 19.8977 8.20123 19.9473 8.56731L19.9542 8.66908L19.9535 9.92388L21.2501 9.92398C21.6643 9.92398 22.0001 10.2598 22.0001 10.674C22.0001 11.0537 21.7179 11.3675 21.3519 11.4171L21.2501 11.424L19.9535 11.4239L19.9542 12.6791C19.9542 13.0933 19.6184 13.4291 19.2042 13.4291C18.8245 13.4291 18.5107 13.1469 18.461 12.7808L18.4542 12.6791L18.4535 11.4239L17.1601 11.424C16.7459 11.424 16.4101 11.0882 16.4101 10.674C16.4101 10.2943 16.6922 9.98049 17.0583 9.93082L17.1601 9.92398L18.4535 9.92388L18.4542 8.66908C18.4542 8.25486 18.79 7.91908 19.2042 7.91908ZM9.87749 1.99988C12.8277 1.99988 15.1955 4.36766 15.1955 7.31788C15.1955 10.2674 12.8274 12.6359 9.87749 12.6359C6.92827 12.6359 4.55949 10.2671 4.55949 7.31788C4.55949 4.36799 6.92795 1.99988 9.87749 1.99988ZM9.87749 3.49988C7.75633 3.49988 6.05949 5.19646 6.05949 7.31788C6.05949 9.43866 7.7567 11.1359 9.87749 11.1359C11.9989 11.1359 13.6955 9.43904 13.6955 7.31788C13.6955 5.19609 11.9993 3.49988 9.87749 3.49988Z" fill="black"/>
</svg>
