<svg width="12" height="12" viewBox="0 0 12 12" fill="none" xmlns="http://www.w3.org/2000/svg">
<path d="M5.76609 2.63105e-05L5.90868 0.00264743C8.46579 0.0870185 10.5087 2.19728 10.5 4.77945L10.4999 4.83663C10.4708 6.3769 9.7001 7.89352 8.42144 9.24704C7.79066 9.90409 7.08625 10.4858 6.32226 10.9805L6.32782 10.9764L6.3009 10.9992C5.99549 11.2187 5.59077 11.2343 5.27118 11.0463L5.19902 10.9992L5.16531 10.9728L4.93427 10.8172C3.97468 10.1557 3.12007 9.35311 2.40093 8.43872L2.22398 8.20782C1.47057 7.22041 1.04281 6.02195 1 4.7647L1.00259 4.60549C1.08667 2.04049 3.19046 -0.00869593 5.76609 2.63105e-05ZM5.76322 0.848022L5.62899 0.849837C3.53444 0.913692 1.85253 2.63332 1.84536 4.74995L1.85603 4.94946C1.92863 5.94445 2.28931 6.89825 2.89797 7.69599C3.65361 8.7082 4.58093 9.57913 5.63749 10.269L5.68343 10.3036C5.72163 10.3368 5.77829 10.3368 5.81649 10.3036L5.86376 10.2681C6.573 9.80882 7.22693 9.26881 7.81016 8.66131C8.95399 7.45051 9.63012 6.11995 9.65458 4.8286L9.65278 4.64335C9.58912 2.54235 7.87475 0.85524 5.76322 0.848022ZM5.74996 3.01837C6.74936 3.01837 7.55953 3.83104 7.55953 4.83352C7.55953 5.836 6.74936 6.64867 5.74996 6.64867C4.75056 6.64867 3.94039 5.836 3.94039 4.83352C3.94039 3.83104 4.75056 3.01837 5.74996 3.01837ZM5.74996 3.86634C5.21744 3.86634 4.78576 4.29936 4.78576 4.83352C4.78576 5.36768 5.21744 5.8007 5.74996 5.8007C6.28247 5.8007 6.71416 5.36768 6.71416 4.83352C6.71416 4.29936 6.28247 3.86634 5.74996 3.86634Z" fill="#FCBB15"/>
</svg>
