<svg width="24" height="24" viewBox="0 0 24 24" fill="none" xmlns="http://www.w3.org/2000/svg">
<path fill-rule="evenodd" clip-rule="evenodd" d="M12 2C16.4112 2 20 5.82462 20 10.5262C20 16.3056 13.7396 22 12 22C10.2604 22 4 16.3056 4 10.5262C4 5.82462 7.58885 2 12 2ZM12 3.53846C8.39079 3.53846 5.45455 6.67385 5.45455 10.5262C5.45455 15.4277 10.9081 20.2031 12 20.4574C13.0919 20.2021 18.5455 15.4267 18.5455 10.5262C18.5455 6.67385 15.6092 3.53846 12 3.53846ZM12.001 7.12821C13.7387 7.12821 15.1525 8.62359 15.1525 10.4626C15.1525 12.3005 13.7387 13.7949 12.001 13.7949C10.2633 13.7949 8.84945 12.3005 8.84945 10.4626C8.84945 8.62359 10.2633 7.12821 12.001 7.12821ZM12.001 8.66667C11.0652 8.66667 10.304 9.4718 10.304 10.4626C10.304 11.4523 11.0652 12.2564 12.001 12.2564C12.9367 12.2564 13.6979 11.4523 13.6979 10.4626C13.6979 9.4718 12.9367 8.66667 12.001 8.66667Z" fill="black"/>
</svg>
