<svg width="20" height="18" viewBox="0 0 20 18" fill="none" xmlns="http://www.w3.org/2000/svg">
<path d="M14.939 0C16.28 0 17.57 0.530001 18.519 1.481C19.469 2.43 20 3.71001 20 5.05001V12.95C20 15.74 17.73 18 14.939 18H5.06001C2.269 18 0 15.74 0 12.95V5.05001C0 2.26 2.259 0 5.06001 0H14.939ZM16.07 5.20001C15.86 5.18901 15.66 5.26001 15.509 5.40001L11 9.00001C10.42 9.48101 9.58901 9.48101 9.00001 9.00001L4.50001 5.40001C4.18901 5.17001 3.759 5.20001 3.5 5.47001C3.23 5.74001 3.2 6.17001 3.429 6.47001L3.56 6.60001L8.11001 10.15C8.67001 10.59 9.34901 10.83 10.06 10.83C10.769 10.83 11.46 10.59 12.019 10.15L16.53 6.54001L16.61 6.46001C16.849 6.17001 16.849 5.75001 16.599 5.46001C16.46 5.31101 16.269 5.22001 16.07 5.20001Z" fill="#200E32"/>
</svg>
