<svg width="24" height="24" viewBox="0 0 24 24" fill="none" xmlns="http://www.w3.org/2000/svg">
<path fill-rule="evenodd" clip-rule="evenodd" d="M19.0319 8.227H19.2526C20.2043 8.227 20.9745 7.411 20.9745 6.405C20.9745 5.399 20.2043 4.583 19.2526 4.583H13.7866V3.957C13.7877 2.877 12.923 2 11.8547 2C10.7884 2 9.92161 2.877 9.92161 3.958V4.584H4.74632C3.79465 4.584 3.0244 5.4 3.0244 6.406C3.0244 7.412 3.79465 8.228 4.74632 8.228H4.96699C3.73736 9.678 3 11.516 3 13.517C3 18.202 7.02947 22 12 22C16.9705 22 21 18.202 21 13.517C20.9989 11.516 20.2626 9.678 19.0319 8.227ZM8.11091 9.5401C8.4038 9.2472 8.85889 9.22742 9.12737 9.4959L11.9999 12.3684L14.8726 9.49579C15.1411 9.2273 15.5961 9.24709 15.889 9.53998C16.1819 9.83288 16.2017 10.288 15.9332 10.5564L13.0606 13.4291L15.9333 16.3018C16.2018 16.5703 16.182 17.0254 15.8891 17.3183C15.5962 17.6112 15.1411 17.6309 14.8726 17.3625L11.9999 14.4898L9.12733 17.3624C8.85885 17.6308 8.40376 17.611 8.11087 17.3182C7.81798 17.0253 7.79819 16.5702 8.06667 16.3017L10.9393 13.4291L8.06671 10.5566C7.79823 10.2881 7.81801 9.83299 8.11091 9.5401Z" fill="black"/>
</svg>
