<svg width="24" height="24" viewBox="0 0 24 24" fill="none" xmlns="http://www.w3.org/2000/svg">
<path fill-rule="evenodd" clip-rule="evenodd" d="M9.42304 4.41495C9.45906 3.08258 10.5325 2 11.8651 2C13.1996 2 14.2713 3.08248 14.3063 4.41402H18.7292C20.0052 4.41402 20.9764 5.50508 20.9764 6.77103C20.9764 7.70349 20.4495 8.54107 19.662 8.91765C20.508 10.2239 20.9991 11.7648 21 13.4174C21 18.1931 16.9338 22 12 22C7.0662 22 3 18.1935 3 13.4178C3 11.765 3.4916 10.2242 4.3371 8.91862C3.54956 8.54206 3.02264 7.70445 3.02264 6.77196C3.02264 5.50602 3.99378 4.41495 5.26978 4.41495H9.42304ZM11.8651 3.30841C11.2422 3.30841 10.7211 3.82742 10.7211 4.48411V5.32336C10.7211 5.54428 10.542 5.72336 10.3211 5.72336H5.26978C4.77979 5.72336 4.32161 6.15753 4.32161 6.77196C4.32161 7.38639 4.77979 7.82056 5.26978 7.82056H6.01724C6.35732 7.82056 6.54226 8.21802 6.32324 8.47818L5.96988 8.89789C4.92184 10.1427 4.29897 11.7127 4.29897 13.4178C4.29897 17.399 7.71013 20.6916 12 20.6916C16.2897 20.6916 19.7008 17.3992 19.701 13.4181C19.7001 11.7126 19.078 10.1426 18.0292 8.897L17.6757 8.47727C17.4567 8.21712 17.6416 7.81963 17.9817 7.81963H18.7292C19.2192 7.81963 19.6774 7.38546 19.6774 6.77103C19.6774 6.1566 19.2192 5.72243 18.7292 5.72243H13.4082C13.1873 5.72243 13.0082 5.54334 13.0082 5.32243V4.48318C13.0089 3.82779 12.49 3.30841 11.8651 3.30841Z" fill="black"/>
<path fill-rule="evenodd" clip-rule="evenodd" d="M7 13.4292C7 13.015 7.33579 12.6792 7.75 12.6792H16.25C16.6642 12.6792 17 13.015 17 13.4292C17 13.8434 16.6642 14.1792 16.25 14.1792H7.75C7.33579 14.1792 7 13.8434 7 13.4292Z" fill="black"/>
<path fill-rule="evenodd" clip-rule="evenodd" d="M12 8.4292C12.4142 8.4292 12.75 8.76499 12.75 9.1792L12.75 17.6792C12.75 18.0934 12.4142 18.4292 12 18.4292C11.5858 18.4292 11.25 18.0934 11.25 17.6792L11.25 9.1792C11.25 8.76499 11.5858 8.4292 12 8.4292Z" fill="black"/>
</svg>
