<svg width="24" height="24" viewBox="0 0 24 24" fill="none" xmlns="http://www.w3.org/2000/svg">
<path d="M12 2.00012C17.5229 2.00012 22 6.47758 22 12.0001C22 17.5227 17.5229 22.0001 12 22.0001C6.47779 22.0001 2 17.5223 2 12.0001C2 6.47791 6.47779 2.00012 12 2.00012ZM12 3.50012C7.30621 3.50012 3.5 7.30633 3.5 12.0001C3.5 16.6939 7.30621 20.5001 12 20.5001C16.6944 20.5001 20.5 16.6943 20.5 12.0001C20.5 7.30598 16.6944 3.50012 12 3.50012ZM12.0051 15.046C12.4193 15.046 12.7551 15.3818 12.7551 15.796C12.7551 16.1757 12.4729 16.4895 12.1069 16.5392L11.9951 16.546C11.5809 16.546 11.2451 16.2102 11.2451 15.796C11.2451 15.4163 11.5273 15.1025 11.8933 15.0529L12.0051 15.046ZM11.9951 7.45422C12.3748 7.45422 12.6886 7.73638 12.7383 8.10245L12.7451 8.20422V12.6232C12.7451 13.0374 12.4093 13.3732 11.9951 13.3732C11.6154 13.3732 11.3016 13.0911 11.2519 12.725L11.2451 12.6232V8.20422C11.2451 7.79001 11.5809 7.45422 11.9951 7.45422Z" fill="black"/>
</svg>
