<svg width="24" height="24" viewBox="0 0 24 24" fill="none" xmlns="http://www.w3.org/2000/svg">
<path fill-rule="evenodd" clip-rule="evenodd" d="M7.80479 2.30429C8.23815 2.72121 8.2513 3.41031 7.83417 3.84344L5.64913 6.11227H13.9802C15.0905 6.11227 17.0426 6.3594 18.7564 7.40708C20.5426 8.499 22 10.4277 22 13.5561C22 16.6846 20.5426 18.6133 18.7564 19.7052C17.0426 20.7529 15.0905 21 13.9802 21H7.04955L7.0495 19.9115L7.04955 18.8229H13.9802C14.8501 18.8229 16.3633 18.6161 17.6198 17.848C18.804 17.1241 19.8218 15.8751 19.8218 13.5561C19.8218 11.2371 18.804 9.98818 17.6198 9.2643C16.3633 8.49617 14.8501 8.28935 13.9802 8.28935H5.67252L7.82922 10.4997C8.24917 10.9301 8.24053 11.6192 7.8099 12.039C7.37928 12.4587 6.68975 12.4501 6.26979 12.0197L2.3094 7.96081C1.8988 7.54001 1.8966 6.8694 2.30445 6.44591L6.26484 2.33365C6.68198 1.90051 7.37144 1.88737 7.80479 2.30429ZM7.0495 19.9115L7.04955 18.8229C6.44805 18.8229 5.9604 19.3103 5.9604 19.9115C5.9604 20.5126 6.44805 21 7.04955 21L7.0495 19.9115Z" fill="black"/>
</svg>
