<svg width="16" height="16" viewBox="0 0 16 16" fill="none" xmlns="http://www.w3.org/2000/svg">
<path fill-rule="evenodd" clip-rule="evenodd" d="M4.47525 1.17881C4.53193 1.23535 4.5769 1.30252 4.60759 1.37646C4.63827 1.45041 4.65407 1.52968 4.65407 1.60974C4.65407 1.68979 4.63827 1.76907 4.60759 1.84301C4.5769 1.91696 4.53193 1.98412 4.47525 2.04066L3.07901 3.43568H9.52216C10.975 3.43568 12.3683 4.01281 13.3956 5.0401C14.4229 6.0674 15 7.4607 15 8.91352C15 10.3663 14.4229 11.7596 13.3956 12.7869C12.3683 13.8142 10.975 14.3914 9.52216 14.3914H4.65298C4.49155 14.3914 4.33674 14.3272 4.2226 14.2131C4.10846 14.0989 4.04433 13.9441 4.04433 13.7827C4.04433 13.6213 4.10846 13.4665 4.2226 13.3523C4.33674 13.2382 4.49155 13.1741 4.65298 13.1741H9.52216C10.6521 13.1741 11.7358 12.7252 12.5348 11.9262C13.3338 11.1272 13.7827 10.0435 13.7827 8.91352C13.7827 7.78355 13.3338 6.69987 12.5348 5.90086C11.7358 5.10186 10.6521 4.65298 9.52216 4.65298H3.07901L4.47525 6.048C4.53184 6.10459 4.57673 6.17177 4.60736 6.24571C4.63798 6.31965 4.65375 6.39889 4.65375 6.47892C4.65375 6.55895 4.63798 6.6382 4.60736 6.71214C4.57673 6.78608 4.53184 6.85326 4.47525 6.90985C4.41866 6.96644 4.35148 7.01133 4.27754 7.04195C4.20361 7.07258 4.12436 7.08834 4.04433 7.08834C3.9643 7.08834 3.88505 7.07258 3.81112 7.04195C3.73718 7.01133 3.67 6.96644 3.61341 6.90985L1.17881 4.47525C1.12213 4.41871 1.07716 4.35155 1.04648 4.2776C1.01579 4.20366 1 4.12439 1 4.04433C1 3.96427 1.01579 3.885 1.04648 3.81105C1.07716 3.73711 1.12213 3.66994 1.17881 3.61341L3.61341 1.17881C3.66994 1.12213 3.73711 1.07716 3.81105 1.04648C3.885 1.01579 3.96427 1 4.04433 1C4.12439 1 4.20366 1.01579 4.2776 1.04648C4.35155 1.07716 4.41871 1.12213 4.47525 1.17881Z" fill="#7E549E"/>
</svg>
