<svg width="24" height="24" viewBox="0 0 24 24" fill="none" xmlns="http://www.w3.org/2000/svg">
<path d="M11.6115 2C16.9198 2 21.2231 6.20819 21.2231 11.3993C21.2231 13.849 20.2647 16.0799 18.6946 17.7529L21.7825 20.7636C22.072 21.0459 22.0726 21.5043 21.7839 21.7873C21.5214 22.0446 21.1102 22.0685 20.8202 21.8586L20.737 21.7886L17.6127 18.7417C15.9681 20.0288 13.8818 20.7985 11.6115 20.7985C6.30323 20.7985 2 16.5903 2 11.3993C2 6.20819 6.30323 2 11.6115 2ZM11.6115 3.44774C7.12086 3.44774 3.48044 7.00776 3.48044 11.3993C3.48044 15.7908 7.12086 19.3508 11.6115 19.3508C16.1022 19.3508 19.7426 15.7908 19.7426 11.3993C19.7426 7.00776 16.1022 3.44774 11.6115 3.44774Z" fill="#200E32"/>
</svg>
