<svg width="24" height="24" viewBox="0 0 24 24" fill="none" xmlns="http://www.w3.org/2000/svg">
<path fill-rule="evenodd" clip-rule="evenodd" d="M11.6118 2C16.9117 2 21.2226 6.21587 21.2226 11.3988C21.2226 13.8441 20.2631 16.0744 18.6928 17.7482L21.7826 20.7636C22.0718 21.0464 22.0728 21.5039 21.7836 21.7867C21.6395 21.9295 21.449 22 21.2595 22C21.071 22 20.8815 21.9295 20.7365 21.7886L17.6093 18.739C15.9643 20.0273 13.8785 20.7986 11.6118 20.7986C6.31194 20.7986 2 16.5818 2 11.3988C2 6.21587 6.31194 2 11.6118 2ZM11.6118 3.44776C7.12814 3.44776 3.48041 7.01407 3.48041 11.3988C3.48041 15.7836 7.12814 19.3509 11.6118 19.3509C16.0945 19.3509 19.7422 15.7836 19.7422 11.3988C19.7422 7.01407 16.0945 3.44776 11.6118 3.44776Z" fill="black"/>
</svg>
