<svg width="20" height="20" viewBox="0 0 20 20" fill="none" xmlns="http://www.w3.org/2000/svg">
<path d="M19.9524 2.40243L19.9148 2.547L15.1509 18.5865C14.6781 20.1771 12.6041 20.495 11.6675 19.1828L11.5777 19.0461L7.5823 12.427L0.941153 8.33916C-0.470519 7.47012 -0.23927 5.37103 1.2679 4.80381L1.42286 4.7523L17.4798 0.0800499C18.9313 -0.340023 20.2719 0.960814 19.9524 2.40243ZM17.9833 1.54268L17.9085 1.55746L1.85217 6.22955C1.51794 6.32655 1.43584 6.75597 1.67975 6.97818L1.74756 7.0291L8.02843 10.8947L13.4079 5.48027C13.6801 5.20628 14.1073 5.18004 14.4092 5.40246L14.4957 5.47664C14.7697 5.74881 14.7959 6.17605 14.5735 6.47791L14.4993 6.56443L9.11246 11.986L12.8948 18.2512C13.0748 18.5495 13.4961 18.5197 13.645 18.227L13.6763 18.1483L18.4404 2.10828C18.5326 1.79896 18.2795 1.51087 17.9833 1.54268Z" fill="#200E32"/>
</svg>
