<svg width="24" height="24" viewBox="0 0 24 24" fill="none" xmlns="http://www.w3.org/2000/svg">
<path fill-rule="evenodd" clip-rule="evenodd" d="M11.0311 14.121L14.782 20.2064C14.9461 20.4731 15.2025 20.47 15.3061 20.4557C15.4097 20.4413 15.659 20.3777 15.7492 20.0751L20.4397 4.23345C20.5217 3.95344 20.371 3.76266 20.3033 3.69497C20.2376 3.62727 20.0499 3.48265 19.7781 3.55958L3.92515 8.20182C3.62463 8.29003 3.55898 8.54235 3.54462 8.64594C3.53026 8.75159 3.52616 9.01314 3.79181 9.18032L9.94694 13.0297L15.3851 7.5341C15.6836 7.23255 16.1708 7.22947 16.4734 7.52795C16.7759 7.82642 16.778 8.31465 16.4795 8.6162L11.0311 14.121ZM15.2261 22.0003C14.5123 22.0003 13.8579 21.6372 13.4722 21.0136L9.49564 14.5611L2.97639 10.484C2.2738 10.0439 1.90661 9.26033 2.02046 8.4367C2.13328 7.61308 2.69843 6.95869 3.49231 6.72586L19.3453 2.08362C20.0745 1.87028 20.8561 2.07234 21.3936 2.60775C21.931 3.14828 22.131 3.93806 21.9136 4.67039L17.2231 20.511C16.9883 21.308 16.3318 21.8711 15.5102 21.9809C15.4138 21.9932 15.3205 22.0003 15.2261 22.0003Z" fill="black"/>
</svg>
