<svg width="24" height="24" viewBox="0 0 24 24" fill="none" xmlns="http://www.w3.org/2000/svg">
<path fill-rule="evenodd" clip-rule="evenodd" d="M12.5832 2C13.2515 2 13.9011 2.28377 14.3669 2.77699C14.8317 3.2731 15.0884 3.95357 15.0688 4.64369C15.0706 4.79909 15.1201 4.97862 15.2097 5.13595C15.3581 5.39655 15.5924 5.57994 15.8705 5.65523C16.1487 5.72665 16.4399 5.68805 16.6872 5.53651C17.8819 4.83094 19.4024 5.2537 20.0847 6.47951L20.6662 7.52097C20.6811 7.54896 20.6942 7.57599 20.7054 7.60398C21.3233 8.81145 20.9107 10.3316 19.7627 11.0256C19.5956 11.125 19.4603 11.264 19.3669 11.432C19.2223 11.6916 19.1821 12.0005 19.2549 12.2843C19.3296 12.5738 19.5079 12.8141 19.7589 12.9628C20.3255 13.2996 20.7483 13.8672 20.9173 14.5226C21.0862 15.177 20.9938 15.8874 20.6643 16.4732L20.0446 17.5408C19.3623 18.7531 17.8418 19.1729 16.6592 18.4664C16.5015 18.3728 16.3195 18.3216 16.1384 18.3168H16.1328C15.8631 18.3168 15.5859 18.4355 15.3842 18.643C15.1798 18.8544 15.0678 19.1362 15.0697 19.4355C15.0632 20.8533 13.9478 22 12.5832 22H11.4137C10.0426 22 8.92719 20.8475 8.92719 19.4297C8.92533 19.255 8.87679 19.0735 8.78626 18.9162C8.63972 18.6517 8.40264 18.4625 8.12916 18.3872C7.85755 18.312 7.55981 18.3535 7.31527 18.5002C6.72911 18.838 6.03935 18.92 5.40839 18.7366C4.77837 18.5523 4.23421 18.1044 3.915 17.5108L3.33164 16.4713C2.64935 15.2474 3.05537 13.679 4.23701 12.9724C4.57209 12.7726 4.78023 12.4001 4.78023 12.0005C4.78023 11.6009 4.57209 11.2274 4.23701 11.0276C3.05443 10.3172 2.64935 8.74485 3.33071 7.52097L3.96354 6.4467C4.63649 5.23633 6.15789 4.80971 7.3442 5.51431C7.50567 5.61373 7.68115 5.66392 7.85942 5.66585C8.44091 5.66585 8.92719 5.16973 8.93653 4.55972C8.93279 3.88697 9.18947 3.24125 9.65709 2.75382C10.1266 2.26736 10.7501 2 11.4137 2H12.5832ZM12.5832 3.44781H11.4137C11.1243 3.44781 10.8537 3.5646 10.6493 3.77501C10.4458 3.98639 10.3347 4.26726 10.3366 4.56648C10.317 5.97761 9.2016 7.11365 7.85102 7.11365C7.41794 7.10883 7.00072 6.98818 6.63857 6.76425C6.12989 6.46504 5.46533 6.64939 5.16758 7.18508L4.53569 8.25935C4.24635 8.77863 4.42369 9.46489 4.93891 9.77472C5.70334 10.2322 6.18029 11.0855 6.18029 12.0005C6.18029 12.9155 5.70334 13.7678 4.93704 14.2262C4.42462 14.5332 4.24728 15.2156 4.54409 15.7464L5.13305 16.7966C5.27865 17.0678 5.51666 17.2637 5.79201 17.3439C6.06642 17.423 6.36883 17.3892 6.62084 17.2444C6.99139 17.0195 7.4226 16.9028 7.85569 16.9028C8.06943 16.9028 8.28317 16.9307 8.49224 16.9887C9.1232 17.1643 9.67109 17.6006 9.9959 18.1865C10.2068 18.5542 10.3235 18.9837 10.3272 19.4219C10.3272 20.0493 10.8145 20.5522 11.4137 20.5522H12.5832C13.1796 20.5522 13.6668 20.0522 13.6696 19.4355C13.6659 18.754 13.9235 18.1064 14.3949 17.6189C14.8597 17.1383 15.5093 16.8497 16.1589 16.869C16.5846 16.8796 16.9943 16.9983 17.3555 17.2107C17.8754 17.5186 18.539 17.3352 18.8396 16.8043L19.4593 15.7358C19.5975 15.4897 19.6376 15.1808 19.5639 14.8961C19.4911 14.6114 19.3081 14.3643 19.0617 14.2185C18.4849 13.8749 18.0733 13.3209 17.9025 12.6568C17.7335 12.0053 17.8259 11.294 18.1554 10.7081C18.3701 10.322 18.6846 9.99672 19.0617 9.77279C19.5676 9.46682 19.7449 8.78249 19.4509 8.2497C19.4388 8.22846 19.4276 8.20626 19.4183 8.1831L18.8713 7.20245C18.5736 6.66676 17.9109 6.48241 17.391 6.78838C16.8291 7.13199 16.1608 7.23044 15.5186 7.05574C14.8774 6.88393 14.3398 6.46407 14.0047 5.87143C13.79 5.5008 13.6734 5.06935 13.6696 4.63018C13.678 4.30008 13.566 4.00376 13.3626 3.78659C13.16 3.57039 12.8753 3.44781 12.5832 3.44781ZM12.0026 8.73143C13.7452 8.73143 15.1629 10.1985 15.1629 12.0006C15.1629 13.8026 13.7452 15.2678 12.0026 15.2678C10.26 15.2678 8.84216 13.8026 8.84216 12.0006C8.84216 10.1985 10.26 8.73143 12.0026 8.73143ZM12.0026 10.1792C11.0318 10.1792 10.2422 10.9968 10.2422 12.0006C10.2422 13.0044 11.0318 13.82 12.0026 13.82C12.9733 13.82 13.7629 13.0044 13.7629 12.0006C13.7629 10.9968 12.9733 10.1792 12.0026 10.1792Z" fill="black"/>
</svg>
