<svg width="24" height="24" viewBox="0 0 24 24" fill="none" xmlns="http://www.w3.org/2000/svg">
<path d="M12.6795 2C13.3959 2 14.0446 2.42 14.4028 3.04C14.5771 3.34 14.6933 3.71 14.6642 4.1C14.6449 4.4 14.732 4.7 14.8869 4.98C15.3807 5.83 16.4747 6.15 17.3267 5.67C18.2852 5.09 19.4954 5.44 20.0473 6.43L20.6959 7.61C21.2575 8.6 20.9477 9.87 19.9795 10.44C19.1565 10.95 18.8661 12.08 19.3599 12.94C19.5148 13.21 19.689 13.44 19.9601 13.58C20.299 13.77 20.5604 14.07 20.7443 14.37C21.1026 14.99 21.0735 15.75 20.725 16.42L20.0473 17.62C19.689 18.26 19.021 18.66 18.3336 18.66C17.9947 18.66 17.6171 18.56 17.3073 18.36C17.0556 18.19 16.7652 18.13 16.4553 18.13C15.4969 18.13 14.6933 18.96 14.6642 19.95C14.6642 21.1 13.7735 22 12.6601 22H11.3434C10.2203 22 9.32961 21.1 9.32961 19.95C9.31025 18.96 8.50666 18.13 7.54818 18.13C7.22868 18.13 6.93823 18.19 6.69619 18.36C6.38637 18.56 5.9991 18.66 5.66993 18.66C4.97284 18.66 4.30481 18.26 3.94658 17.62L3.27855 16.42C2.92032 15.77 2.90096 14.99 3.25918 14.37C3.41409 14.07 3.70454 13.77 4.03372 13.58C4.30481 13.44 4.47908 13.21 4.64367 12.94C5.12775 12.08 4.8373 10.95 4.01435 10.44C3.05587 9.87 2.74605 8.6 3.29791 7.61L3.94658 6.43C4.50812 5.44 5.70865 5.09 6.67682 5.67C7.51913 6.15 8.61316 5.83 9.10693 4.98C9.26184 4.7 9.34897 4.4 9.32961 4.1C9.31025 3.71 9.41674 3.34 9.6007 3.04C9.95892 2.42 10.6076 2.02 11.3144 2H12.6795ZM12.0114 9.18C10.4914 9.18 9.26184 10.44 9.26184 12.01C9.26184 13.58 10.4914 14.83 12.0114 14.83C13.5315 14.83 14.732 13.58 14.732 12.01C14.732 10.44 13.5315 9.18 12.0114 9.18Z" fill="black"/>
</svg>
