<svg width="20" height="20" viewBox="0 0 21 22" fill="none" xmlns="http://www.w3.org/2000/svg">
<path d="M11.1277 2.39791e-07C11.9076 -0.000314224 12.6545 0.308676 13.1981 0.856582C13.7417 1.40449 14.0358 2.14465 14.0122 2.83542L14.0215 2.99789C14.0405 3.15787 14.0937 3.31228 14.1799 3.4546C14.3478 3.73524 14.6228 3.93889 14.9442 4.02065C15.2656 4.10241 15.607 4.05556 15.9304 3.87023L16.1106 3.77905C17.4635 3.15587 19.0862 3.6511 19.8367 4.92721L20.5112 6.07391C20.5289 6.10414 20.5446 6.13538 20.5581 6.16742L20.6207 6.29026C21.224 7.55171 20.7947 9.05219 19.6487 9.81451L19.3656 9.98875C19.2177 10.0898 19.0943 10.2218 19.0016 10.3805C18.834 10.6622 18.788 10.9977 18.8738 11.3128C18.9596 11.6279 19.17 11.8964 19.4891 12.0772L19.6728 12.1925C20.2275 12.5727 20.6283 13.133 20.8031 13.7753C21.0003 14.4999 20.8945 15.2717 20.5039 15.9285L19.7783 17.1127L19.6689 17.2798C18.8164 18.4808 17.1612 18.8478 15.898 18.1335L15.7483 18.0579C15.5921 17.9895 15.4236 17.9519 15.2702 17.9476C14.9365 17.9461 14.616 18.0753 14.38 18.3064C14.144 18.5376 14.0122 18.8516 14.013 19.2168L14.0041 19.4056C13.882 20.8674 12.6329 22 11.128 22H9.76917C8.17541 22 6.88342 20.7342 6.88503 19.2229L6.87569 19.0604C6.85671 18.9004 6.80354 18.746 6.71297 18.5963C6.54869 18.315 6.27651 18.1096 5.95692 18.0258C5.63733 17.942 5.29682 17.9868 4.96722 18.1734L4.77138 18.2693C4.15206 18.5422 3.45348 18.5926 2.7989 18.4103C2.06037 18.2046 1.43593 17.7191 1.07154 17.0746L0.370469 15.8886L0.277163 15.7129C-0.36127 14.3926 0.139165 12.8054 1.40926 12.0862L1.5251 12.0151C1.8644 11.785 2.06785 11.4057 2.06785 11C2.06785 10.5589 1.82764 10.1512 1.40743 9.91266L1.23693 9.80549C0.0110081 8.97024 -0.363558 7.34853 0.395884 6.05765L1.1101 4.90782C1.90441 3.55714 3.66471 3.09118 5.01859 3.85188L5.16515 3.92843C5.31455 3.99562 5.47685 4.03128 5.63311 4.03291C6.32216 4.03298 6.88353 3.49087 6.89396 2.79599L6.90333 2.58259C6.95975 1.92188 7.25238 1.30097 7.73075 0.830031C8.27047 0.298705 9.00405 2.39791e-07 9.76917 2.39791e-07H11.1277ZM11.128 1.59251H9.76917C9.43649 1.59251 9.11753 1.72239 8.88287 1.9534C8.67488 2.15816 8.54764 2.42815 8.52531 2.68027L8.51053 3.01565C8.39673 4.47796 7.14966 5.62557 5.62459 5.62538C5.23147 5.62138 4.84391 5.53622 4.44869 5.35728L4.23709 5.24794C3.63418 4.90947 2.8654 5.11297 2.50863 5.71917L1.79441 6.86901C1.46715 7.42548 1.63082 8.13412 2.13756 8.48017L2.42435 8.6581C3.21416 9.18132 3.6933 10.0572 3.6933 11C3.6933 11.929 3.22754 12.7974 2.42241 13.3426L2.25103 13.4482C1.68689 13.7679 1.46919 14.4584 1.73138 15.0022L1.7933 15.1194L2.48547 16.2892C2.64801 16.5766 2.92073 16.7886 3.24327 16.8784C3.52914 16.958 3.83425 16.936 4.07229 16.832L4.19188 16.7746C4.85205 16.3972 5.63875 16.2938 6.37711 16.4874C7.11547 16.681 7.74431 17.1555 8.11731 17.7945C8.31796 18.1258 8.44493 18.4945 8.49409 18.9183L8.51626 19.3073C8.58468 19.9259 9.11952 20.4075 9.76917 20.4075H11.128C11.7851 20.4075 12.3309 19.9126 12.3821 19.3063L12.3884 19.1863C12.3847 18.4343 12.6879 17.7121 13.2306 17.1804C13.7734 16.6486 14.5105 16.3515 15.2958 16.3554C15.6812 16.3655 16.0604 16.4501 16.4481 16.621L16.7956 16.795C17.3411 17.0296 17.9882 16.8584 18.3162 16.3974L18.3959 16.2753L19.1048 15.118C19.2723 14.8362 19.3183 14.5007 19.2325 14.1856C19.1565 13.9064 18.9823 13.6627 18.771 13.517L18.4715 13.3315C17.8988 12.9522 17.4825 12.3819 17.3032 11.7231C17.106 10.9985 17.2118 10.2268 17.5941 9.58388C17.8034 9.22587 18.091 8.91806 18.466 8.66285L18.6428 8.55375C19.2061 8.23098 19.4236 7.54054 19.1633 6.99472L19.0855 6.84782L19.0716 6.81698L18.4283 5.72229C18.1241 5.20493 17.4909 4.98138 16.9537 5.15801L16.8316 5.20592L16.7182 5.26257C16.0601 5.64235 15.275 5.7501 14.5357 5.56205C13.7965 5.37401 13.164 4.90561 12.7799 4.26378C12.5792 3.93254 12.4523 3.56382 12.4031 3.14L12.3887 2.86274C12.3985 2.52916 12.27 2.2059 12.0326 1.96661C11.7952 1.72732 11.469 1.59251 11.128 1.59251ZM10.4536 7.405C12.4801 7.405 14.1229 9.01454 14.1229 11C14.1229 12.9855 12.4801 14.595 10.4536 14.595C8.42705 14.595 6.78423 12.9855 6.78423 11C6.78423 9.01454 8.42705 7.405 10.4536 7.405ZM10.4536 8.99752C9.32475 8.99752 8.40967 9.89406 8.40967 11C8.40967 12.1059 9.32475 13.0025 10.4536 13.0025C11.5824 13.0025 12.4975 12.1059 12.4975 11C12.4975 9.89406 11.5824 8.99752 10.4536 8.99752Z" fill="#200E32"/>
</svg>
