<svg width="24" height="24" viewBox="0 0 24 24" fill="none" xmlns="http://www.w3.org/2000/svg">
<path fill-rule="evenodd" clip-rule="evenodd" d="M12.0001 3.62158C11.9068 3.62158 11.677 3.64861 11.555 3.9059L9.6821 7.85283C9.38569 8.4766 8.8144 8.9101 8.15387 9.00956L3.96098 9.6463C3.68405 9.68846 3.58969 9.90467 3.56097 9.99548C3.53533 10.083 3.4943 10.3057 3.68507 10.4982L6.71692 13.5684C7.20001 14.0581 7.4195 14.764 7.30463 15.4548L6.59077 19.7898C6.54666 20.0612 6.70769 20.219 6.77949 20.2731C6.85539 20.3336 7.05847 20.4536 7.30975 20.3152L11.0585 18.2666C11.6493 17.9456 12.3529 17.9456 12.9417 18.2666L16.6894 20.3141C16.9417 20.4514 17.1448 20.3314 17.2217 20.2731C17.2935 20.219 17.4546 20.0612 17.4104 19.7898L16.6945 15.4548C16.5797 14.764 16.7992 14.0581 17.2822 13.5684L20.3141 10.4982C20.5059 10.3057 20.4649 10.082 20.4382 9.99548C20.4105 9.90467 20.3161 9.68846 20.0392 9.6463L15.8463 9.00956C15.1868 8.9101 14.6155 8.4766 14.3191 7.85175L12.4442 3.9059C12.3232 3.64861 12.0934 3.62158 12.0001 3.62158ZM7.07385 21.9995C6.65025 21.9995 6.22973 21.859 5.86973 21.5822C5.24818 21.1022 4.94356 20.3098 5.07587 19.512L5.78973 15.177C5.81639 15.0159 5.76408 14.8527 5.65126 14.7381L2.61941 11.6679C2.06145 11.1046 1.86145 10.2722 2.09735 9.49928C2.3353 8.71767 2.96506 8.15877 3.74148 8.04201L7.93438 7.40527C8.09644 7.38149 8.23592 7.27663 8.30567 7.12744L10.1796 3.17943C10.5252 2.45188 11.2226 2 12.0001 2C12.7775 2 13.475 2.45188 13.8206 3.17943L15.6955 7.12636C15.7663 7.27663 15.9048 7.38149 16.0658 7.40527L20.2587 8.04201C21.0351 8.15877 21.6649 8.71767 21.9028 9.49928C22.1387 10.2722 21.9377 11.1046 21.3798 11.6679L18.3479 14.7381C18.2351 14.8527 18.1838 15.0159 18.2105 15.1759L18.9254 19.512C19.0566 20.3109 18.752 21.1033 18.1294 21.5822C17.4987 22.0698 16.6771 22.1357 15.9807 21.753L12.2339 19.7066C12.0873 19.6266 11.9119 19.6266 11.7652 19.7066L8.01849 21.7541C7.71899 21.9184 7.39591 21.9995 7.07385 21.9995Z" fill="black"/>
</svg>
