<svg width="24" height="24" viewBox="0 0 24 24" fill="none" xmlns="http://www.w3.org/2000/svg">
<path d="M17.9178 14.4413C17.6588 14.7055 17.5398 15.0875 17.5988 15.4623L18.4878 20.6409C18.5628 21.0798 18.3868 21.524 18.0378 21.7776C17.6958 22.0408 17.2409 22.0723 16.8679 21.8618L12.4392 19.4304C12.2852 19.3441 12.1142 19.2978 11.9392 19.2925H11.6682C11.5742 19.3073 11.4822 19.3388 11.3982 19.3873L6.96854 21.8303C6.74956 21.946 6.50157 21.9871 6.25859 21.946C5.66663 21.8281 5.27166 21.2345 5.36865 20.6082L6.25859 15.4296C6.31759 15.0518 6.19859 14.6676 5.93961 14.3992L2.32885 10.7152C2.02687 10.4068 1.92188 9.94368 2.05987 9.52581C2.19386 9.109 2.53584 8.80481 2.94881 8.73639L7.91848 7.97749C8.29645 7.93644 8.62843 7.69436 8.79842 7.33649L10.9883 2.61049C11.0403 2.50523 11.1073 2.40839 11.1883 2.32629L11.2783 2.25261C11.3253 2.19788 11.3792 2.15262 11.4392 2.11578L11.5482 2.07368L11.7182 2H12.1392C12.5152 2.04105 12.8461 2.27788 13.0191 2.63154L15.238 7.33649C15.398 7.68067 15.709 7.9196 16.0679 7.97749L21.0376 8.73639C21.4576 8.79955 21.8085 9.10479 21.9475 9.52581C22.0785 9.94789 21.9655 10.411 21.6576 10.7152L17.9178 14.4413Z" fill="black"/>
</svg>
