<svg width="20" height="19" viewBox="0 0 20 19" fill="none" xmlns="http://www.w3.org/2000/svg">
<path d="M10.0003 0C10.5734 0.0030001 11.0954 0.327011 11.3504 0.840029L13.6115 5.38018C13.6215 5.39018 13.6315 5.40018 13.6405 5.40018L18.7026 6.13021C19.0986 6.18621 19.4577 6.39422 19.7027 6.71023C20.1537 7.31425 20.0847 8.15728 19.5427 8.6803L15.8725 12.2304C15.8725 12.2304 15.8655 12.2374 15.8655 12.2404C15.8655 12.2434 15.8655 12.2404 15.8725 12.2504L16.7526 17.2606C16.8726 18.0756 16.3166 18.8376 15.5025 18.9706C15.4245 18.9816 15.3445 18.9886 15.2655 18.9886C15.0175 18.9896 14.7725 18.9286 14.5535 18.8106L10.0323 16.4506C10.0183 16.4496 10.0043 16.4536 9.99234 16.4606L5.44019 18.8406C5.23018 18.9466 4.99617 19.0016 4.76016 19.0007C4.20014 19.0016 3.68513 18.6936 3.42112 18.2006C3.26411 17.9106 3.20711 17.5766 3.26011 17.2506L4.15114 12.2604C4.15114 12.2494 4.14814 12.2384 4.14014 12.2304L0.440015 8.6703C0.159005 8.39629 0.00100003 8.02027 0 7.62726C0 7.21325 0.166006 6.81623 0.461016 6.52722C0.694024 6.31722 0.982033 6.17921 1.29104 6.12721L6.34122 5.39718C6.36122 5.39718 6.38222 5.38818 6.38222 5.36718L8.6403 0.840029C8.8183 0.481016 9.13131 0.209007 9.51032 0.0800027C9.66833 0.0260009 9.83434 0 10.0003 0ZM10.0003 1.46005H9.98134L9.97134 1.46705C9.96234 1.47205 9.95634 1.48005 9.95134 1.48905L7.69026 6.01921C7.47225 6.46422 7.05124 6.77323 6.56122 6.84923L1.53105 7.57026L1.47005 7.59026C1.46205 7.60326 1.46005 7.61626 1.46105 7.63126L5.16118 11.1814C5.51319 11.5274 5.67319 12.0244 5.59119 12.5114L4.71116 17.4916V17.5116C4.71616 17.5316 4.73416 17.5456 4.75516 17.5456H4.77116L9.30032 15.1705C9.52232 15.0525 9.77033 14.9895 10.0213 14.9895C10.2654 14.9885 10.5054 15.0485 10.7214 15.1605L15.2215 17.5106H15.2305C15.2395 17.5156 15.2495 17.5196 15.2595 17.5206C15.2635 17.5226 15.2675 17.5226 15.2715 17.5206H15.2925L15.3125 17.5016L14.4315 12.5204C14.3345 12.0294 14.4975 11.5234 14.8625 11.1814L18.5326 7.62226L18.5426 7.60026L18.5326 7.59126H18.5186C18.5106 7.58726 18.5016 7.58526 18.4926 7.58526L13.4305 6.84923C12.9404 6.77423 12.5184 6.46422 12.3014 6.01921L10.0413 1.50005C10.0423 1.49105 10.0393 1.48305 10.0333 1.47705C10.0263 1.47105 10.0183 1.46905 10.0093 1.46905L10.0003 1.46005Z" fill="#200E32"/>
</svg>
