<svg width="12" height="12" viewBox="0 0 12 12" fill="none" xmlns="http://www.w3.org/2000/svg">
<path d="M5.88208 1C8.64369 1 10.8821 3.23839 10.8821 6C10.8821 8.76161 8.64369 11 5.88208 11C3.12047 11 0.88208 8.76161 0.88208 6C0.88208 3.23839 3.12047 1 5.88208 1ZM5.88208 1.75C3.53469 1.75 1.63208 3.65261 1.63208 6C1.63208 8.34739 3.53469 10.25 5.88208 10.25C8.22947 10.25 10.1321 8.34739 10.1321 6C10.1321 3.65261 8.22947 1.75 5.88208 1.75ZM5.71288 3.5482C5.90273 3.5482 6.05963 3.68928 6.08446 3.87231L6.08788 3.9232L6.08768 6.13325L7.79 7.14915C7.95304 7.24641 8.01551 7.44795 7.94306 7.61787L7.91993 7.66332C7.82267 7.82636 7.62113 7.88883 7.45122 7.81638L7.40576 7.79325L5.52076 6.66875C5.42355 6.61076 5.35862 6.5126 5.34206 6.40257L5.33788 6.3467V3.9232C5.33788 3.71609 5.50577 3.5482 5.71288 3.5482Z" fill="#FCBB15"/>
</svg>
